<svg width="16" height="16" viewBox="0 0 16 16" fill="none" xmlns="http://www.w3.org/2000/svg">
<path fill-rule="evenodd" clip-rule="evenodd" d="M15.7123 6.53473L15.7343 6.59312C16.0476 7.41737 16.086 8.32184 15.8437 9.17C15.6015 10.0182 15.0917 10.764 14.3913 11.2948L14.3813 11.3029L11.0453 13.8163L9.40228 15.0665L8.40328 15.8265C8.28617 15.9154 8.14347 15.9635 7.99678 15.9635C7.85009 15.9635 7.70739 15.9154 7.59028 15.8265L6.59128 15.0665L4.94828 13.8163L1.63528 11.317L1.61728 11.3029L1.60928 11.2959C0.908855 10.7648 0.39911 10.0187 0.157016 9.17037C-0.0850783 8.32201 -0.0463758 7.41739 0.267279 6.59312L0.290279 6.53574L2.46628 0.817365C2.50384 0.718455 2.56831 0.632194 2.65232 0.568462C2.73633 0.504729 2.83647 0.466104 2.94128 0.45701C3.07607 0.443086 3.21141 0.477436 3.32353 0.554021C3.43565 0.630607 3.51735 0.744525 3.55428 0.875747L5.02428 5.40535H10.9773L12.4473 0.875747C12.4799 0.75947 12.5478 0.656378 12.6416 0.580924C12.7353 0.50547 12.8502 0.461438 12.97 0.455C13.0899 0.448563 13.2087 0.480043 13.3099 0.545027C13.4111 0.610011 13.4896 0.705241 13.5343 0.817365L15.7123 6.53473ZM11.2803 8.74216C11.4128 8.59905 11.4849 8.40977 11.4815 8.21419C11.478 8.01861 11.3993 7.832 11.2619 7.69369C11.1245 7.55537 10.9391 7.47614 10.7448 7.47269C10.5505 7.46924 10.3625 7.54184 10.2203 7.67519L7.50028 10.4131L6.28028 9.18506C6.21162 9.11088 6.12882 9.05139 6.03682 9.01013C5.94482 8.96887 5.8455 8.94668 5.7448 8.94489C5.6441 8.94311 5.54407 8.96175 5.45068 8.99972C5.35729 9.03769 5.27246 9.09421 5.20124 9.16589C5.13002 9.23758 5.07388 9.32297 5.03616 9.41697C4.99844 9.51098 4.97991 9.61166 4.98169 9.71303C4.98346 9.81439 5.00551 9.91436 5.0465 10.007C5.08749 10.0996 5.14659 10.1829 5.22028 10.252L6.97028 12.0135C7.1109 12.1549 7.30153 12.2343 7.50028 12.2343C7.69903 12.2343 7.88965 12.1549 8.03028 12.0135L11.2803 8.74216Z" fill="#4D78C7"/>
</svg>
