<svg width="13" height="13" viewBox="0 0 13 13" fill="none" xmlns="http://www.w3.org/2000/svg">
<path d="M6.09123 12.8283C6.17409 12.8874 6.27313 12.9191 6.37467 12.9191C6.47622 12.9191 6.57525 12.8874 6.65811 12.8283L6.375 12.4255L6.65877 12.8283L6.664 12.8244L6.67773 12.8145L6.73004 12.7763C6.77537 12.7434 6.83967 12.6954 6.92292 12.6322C7.89453 11.894 8.81167 11.0859 9.66712 10.2142C10.4177 9.44544 11.1808 8.54707 11.7588 7.59407C12.3342 6.64634 12.75 5.60383 12.75 4.55869C12.75 3.31808 12.3675 2.34863 11.6908 1.69048C11.0173 1.03628 10.1085 0.743408 9.15385 0.743408C8.02596 0.743408 7.03015 1.29165 6.375 2.13671C5.71985 1.29165 4.72338 0.743408 3.59615 0.743408C1.58231 0.743408 0 2.48026 0 4.55869C0 5.60383 0.4165 6.64568 0.991231 7.59407C1.56923 8.54707 2.33227 9.44544 3.08288 10.2148C3.99487 11.1436 4.97682 11.9999 6.01996 12.7763L6.07227 12.8145L6.086 12.8244L6.09123 12.8283Z" fill="#E30000"/>
</svg>
