<svg width="13" height="13" viewBox="0 0 13 13" fill="none" xmlns="http://www.w3.org/2000/svg">
<path d="M5.73896 0.950676C5.9775 0.211678 7.02305 0.211678 7.26159 0.950677L8.22973 3.94991C8.33637 4.28027 8.64391 4.50416 8.99105 4.50416H12.1351C12.9088 4.50416 13.2319 5.49318 12.6074 5.9499L10.0548 7.81668C9.7762 8.0204 9.65967 8.37977 9.76568 8.70818L10.7386 11.7221C10.9768 12.4601 10.1309 13.0713 9.505 12.6136L6.97252 10.7615C6.69128 10.5558 6.30927 10.5558 6.02803 10.7615L3.49555 12.6136C2.86961 13.0713 2.02377 12.4601 2.26199 11.7221L3.23487 8.70818C3.34087 8.37977 3.22435 8.02039 2.94579 7.81668L0.393182 5.9499C-0.231338 5.49318 0.0917208 4.50416 0.865428 4.50416H4.0095C4.35664 4.50416 4.66418 4.28027 4.77081 3.94991L5.73896 0.950676Z" fill="#F5A801"/>
</svg>
