<svg width="30" height="31" viewBox="0 0 30 31" fill="none" xmlns="http://www.w3.org/2000/svg">
<path d="M4.6375 6.99988H23.655C25.3775 6.99988 26.6213 8.58738 26.1488 10.1849L24.0812 17.1849C23.7625 18.2599 22.745 18.9999 21.5875 18.9999H10.14C8.98125 18.9999 7.9625 18.2586 7.645 17.1849L4.6375 6.99988ZM4.6375 6.99988L3.75 3.99988M20.625 26.4999C21.1223 26.4999 21.5992 26.3023 21.9508 25.9507C22.3025 25.5991 22.5 25.1222 22.5 24.6249C22.5 24.1276 22.3025 23.6507 21.9508 23.2991C21.5992 22.9474 21.1223 22.7499 20.625 22.7499C20.1277 22.7499 19.6508 22.9474 19.2992 23.2991C18.9475 23.6507 18.75 24.1276 18.75 24.6249C18.75 25.1222 18.9475 25.5991 19.2992 25.9507C19.6508 26.3023 20.1277 26.4999 20.625 26.4999ZM10.625 26.4999C11.1223 26.4999 11.5992 26.3023 11.9508 25.9507C12.3025 25.5991 12.5 25.1222 12.5 24.6249C12.5 24.1276 12.3025 23.6507 11.9508 23.2991C11.5992 22.9474 11.1223 22.7499 10.625 22.7499C10.1277 22.7499 9.65081 22.9474 9.29917 23.2991C8.94754 23.6507 8.75 24.1276 8.75 24.6249C8.75 25.1222 8.94754 25.5991 9.29917 25.9507C9.65081 26.3023 10.1277 26.4999 10.625 26.4999Z" stroke="black" stroke-width="2" stroke-linecap="round" stroke-linejoin="round"/>
</svg>
