<svg width="33" height="33" viewBox="0 0 33 33" fill="none" xmlns="http://www.w3.org/2000/svg">
<path fill-rule="evenodd" clip-rule="evenodd" d="M16.5002 19.4177L23.7918 26.7093C24.1787 27.0963 24.7035 27.3136 25.2507 27.3136C25.7979 27.3136 26.3226 27.0963 26.7096 26.7093C27.0965 26.3224 27.3139 25.7977 27.3139 25.2505C27.3139 24.7033 27.0965 24.1785 26.7096 23.7916L19.4152 16.5L26.7082 9.20834C26.8997 9.01676 27.0516 8.78934 27.1552 8.53906C27.2588 8.28878 27.3121 8.02054 27.312 7.74967C27.3119 7.4788 27.2585 7.21059 27.1548 6.96036C27.0511 6.71012 26.8991 6.48277 26.7075 6.29128C26.5159 6.09979 26.2885 5.94791 26.0382 5.84431C25.7879 5.74071 25.5197 5.68742 25.2488 5.68748C24.978 5.68755 24.7097 5.74096 24.4595 5.84468C24.2093 5.9484 23.9819 6.10039 23.7904 6.29197L16.5002 13.5836L9.20856 6.29197C9.0184 6.09489 8.79088 5.93766 8.5393 5.82945C8.28772 5.72124 8.01711 5.66422 7.74325 5.66171C7.4694 5.6592 7.19779 5.71126 6.94426 5.81484C6.69074 5.91843 6.46039 6.07146 6.26665 6.26503C6.0729 6.45859 5.91965 6.6888 5.81582 6.94222C5.712 7.19564 5.65969 7.46721 5.66193 7.74106C5.66418 8.01492 5.72095 8.28559 5.82893 8.53727C5.9369 8.78896 6.09392 9.01662 6.29081 9.20697L13.5852 16.5L6.29219 23.793C6.09529 23.9833 5.93827 24.211 5.8303 24.4627C5.72233 24.7143 5.66556 24.985 5.66331 25.2589C5.66106 25.5327 5.71337 25.8043 5.8172 26.0577C5.92102 26.3111 6.07428 26.5413 6.26802 26.7349C6.46176 26.9285 6.69212 27.0815 6.94564 27.1851C7.19916 27.2887 7.47077 27.3407 7.74463 27.3382C8.01848 27.3357 8.2891 27.2787 8.54068 27.1705C8.79226 27.0623 9.01977 26.905 9.20994 26.708L16.5002 19.4177Z" fill="black"/>
</svg>
