<svg width="273" height="217" viewBox="0 0 273 217" fill="none" xmlns="http://www.w3.org/2000/svg">
<path d="M25.2232 18.6997V26.0683H11.9031V31.9254H21.7278V38.9633H11.9031V52H2.64513V18.6997H25.2232ZM38.3802 44.9148H48.7245V52H29.1223V18.6997H38.3802V44.9148ZM73.3909 46.568H61.5823L59.7874 52H50.0571L62.1963 18.6997H72.8713L84.9633 52H75.1858L73.3909 46.568ZM71.0764 39.4829L67.4866 28.7134L63.944 39.4829H71.0764ZM100.545 52.3306C96.6719 52.3306 93.4915 51.4174 91.0038 49.591C88.5161 47.7332 87.1778 45.088 86.9889 41.6557H96.8609C96.9553 42.8208 97.3017 43.671 97.9 44.2063C98.4983 44.7416 99.2698 45.0093 100.215 45.0093C101.065 45.0093 101.758 44.8046 102.293 44.3953C102.86 43.9544 103.143 43.3561 103.143 42.6003C103.143 41.6242 102.686 40.8684 101.773 40.3331C100.86 39.7978 99.38 39.1995 97.3332 38.5382C95.1604 37.8139 93.397 37.1211 92.043 36.4599C90.7204 35.7671 89.5553 34.7752 88.5476 33.4841C87.5714 32.1615 87.0833 30.4453 87.0833 28.3355C87.0833 26.1942 87.6187 24.3678 88.6893 22.8563C89.76 21.3134 91.24 20.1482 93.1294 19.361C95.0187 18.5738 97.16 18.1801 99.5532 18.1801C103.426 18.1801 106.512 19.0933 108.811 20.9197C111.141 22.7146 112.385 25.2496 112.543 28.5245H102.482C102.45 27.5168 102.135 26.7611 101.537 26.2572C100.97 25.7534 100.23 25.5015 99.3171 25.5015C98.6243 25.5015 98.0575 25.7062 97.6166 26.1155C97.1758 26.5249 96.9553 27.1074 96.9553 27.8632C96.9553 28.493 97.1915 29.0441 97.6639 29.5164C98.1677 29.9573 98.7817 30.3509 99.506 30.6973C100.23 31.0122 101.301 31.4215 102.718 31.9254C104.828 32.6496 106.56 33.3739 107.914 34.0981C109.299 34.7909 110.48 35.7828 111.456 37.0739C112.464 38.3335 112.968 39.9395 112.968 41.8918C112.968 43.8757 112.464 45.6548 111.456 47.2293C110.48 48.8038 109.047 50.0476 107.158 50.9608C105.3 51.874 103.096 52.3306 100.545 52.3306ZM147.077 18.6997V52H137.819V38.6327H126.53V52H117.272V18.6997H126.53V31.2168H137.819V18.6997H147.077ZM173.98 52.3306C170.107 52.3306 166.926 51.4174 164.439 49.591C161.951 47.7332 160.613 45.088 160.424 41.6557H170.296C170.39 42.8208 170.737 43.671 171.335 44.2063C171.933 44.7416 172.705 45.0093 173.649 45.0093C174.5 45.0093 175.192 44.8046 175.728 44.3953C176.294 43.9544 176.578 43.3561 176.578 42.6003C176.578 41.6242 176.121 40.8684 175.208 40.3331C174.295 39.7978 172.815 39.1995 170.768 38.5382C168.595 37.8139 166.832 37.1211 165.478 36.4599C164.155 35.7671 162.99 34.7752 161.982 33.4841C161.006 32.1615 160.518 30.4453 160.518 28.3355C160.518 26.1942 161.053 24.3678 162.124 22.8563C163.195 21.3134 164.675 20.1482 166.564 19.361C168.454 18.5738 170.595 18.1801 172.988 18.1801C176.861 18.1801 179.947 19.0933 182.246 20.9197C184.576 22.7146 185.82 25.2496 185.978 28.5245H175.917C175.885 27.5168 175.57 26.7611 174.972 26.2572C174.405 25.7534 173.665 25.5015 172.752 25.5015C172.059 25.5015 171.492 25.7062 171.051 26.1155C170.611 26.5249 170.39 27.1074 170.39 27.8632C170.39 28.493 170.626 29.0441 171.099 29.5164C171.603 29.9573 172.217 30.3509 172.941 30.6973C173.665 31.0122 174.736 31.4215 176.153 31.9254C178.263 32.6496 179.994 33.3739 181.349 34.0981C182.734 34.7909 183.915 35.7828 184.891 37.0739C185.899 38.3335 186.403 39.9395 186.403 41.8918C186.403 43.8757 185.899 45.6548 184.891 47.2293C183.915 48.8038 182.482 50.0476 180.593 50.9608C178.735 51.874 176.531 52.3306 173.98 52.3306ZM211.773 46.568H199.964L198.17 52H188.439L200.579 18.6997H211.253L223.346 52H213.568L211.773 46.568ZM209.459 39.4829L205.869 28.7134L202.326 39.4829H209.459ZM235.621 44.9148H245.965V52H226.363V18.6997H235.621V44.9148ZM258.823 26.1155V31.5475H269.451V38.5854H258.823V44.5842H270.868V52H249.565V18.6997H270.868V26.1155H258.823Z" fill="#E83F25"/>
<mask id="path-2-outside-1_98_136" maskUnits="userSpaceOnUse" x="1" y="63" width="271" height="37" fill="black">
<rect fill="white" x="1" y="63" width="271" height="37"/>
<path d="M25.2232 64.6997V72.0683H11.9031V77.9254H21.7278V84.9633H11.9031V98H2.64513V64.6997H25.2232ZM38.3802 90.9148H48.7245V98H29.1223V64.6997H38.3802V90.9148ZM73.3909 92.568H61.5823L59.7874 98H50.0571L62.1963 64.6997H72.8713L84.9633 98H75.1858L73.3909 92.568ZM71.0764 85.4829L67.4866 74.7134L63.944 85.4829H71.0764ZM100.545 98.3306C96.6719 98.3306 93.4915 97.4174 91.0038 95.591C88.5161 93.7332 87.1778 91.088 86.9889 87.6557H96.8609C96.9553 88.8208 97.3017 89.671 97.9 90.2063C98.4983 90.7416 99.2698 91.0093 100.215 91.0093C101.065 91.0093 101.758 90.8046 102.293 90.3953C102.86 89.9544 103.143 89.3561 103.143 88.6003C103.143 87.6242 102.686 86.8684 101.773 86.3331C100.86 85.7978 99.38 85.1995 97.3332 84.5382C95.1604 83.8139 93.397 83.1211 92.043 82.4599C90.7204 81.7671 89.5553 80.7752 88.5476 79.4841C87.5714 78.1615 87.0833 76.4453 87.0833 74.3355C87.0833 72.1942 87.6187 70.3678 88.6893 68.8563C89.76 67.3134 91.24 66.1482 93.1294 65.361C95.0187 64.5738 97.16 64.1801 99.5532 64.1801C103.426 64.1801 106.512 65.0933 108.811 66.9197C111.141 68.7146 112.385 71.2496 112.543 74.5245H102.482C102.45 73.5168 102.135 72.7611 101.537 72.2572C100.97 71.7534 100.23 71.5015 99.3171 71.5015C98.6243 71.5015 98.0575 71.7062 97.6166 72.1155C97.1758 72.5249 96.9553 73.1074 96.9553 73.8632C96.9553 74.493 97.1915 75.0441 97.6639 75.5164C98.1677 75.9573 98.7817 76.3509 99.506 76.6973C100.23 77.0122 101.301 77.4215 102.718 77.9254C104.828 78.6496 106.56 79.3739 107.914 80.0981C109.299 80.7909 110.48 81.7828 111.456 83.0739C112.464 84.3335 112.968 85.9395 112.968 87.8918C112.968 89.8757 112.464 91.6548 111.456 93.2293C110.48 94.8038 109.047 96.0476 107.158 96.9608C105.3 97.874 103.096 98.3306 100.545 98.3306ZM147.077 64.6997V98H137.819V84.6327H126.53V98H117.272V64.6997H126.53V77.2168H137.819V64.6997H147.077ZM173.98 98.3306C170.107 98.3306 166.926 97.4174 164.439 95.591C161.951 93.7332 160.613 91.088 160.424 87.6557H170.296C170.39 88.8208 170.737 89.671 171.335 90.2063C171.933 90.7416 172.705 91.0093 173.649 91.0093C174.5 91.0093 175.192 90.8046 175.728 90.3953C176.294 89.9544 176.578 89.3561 176.578 88.6003C176.578 87.6242 176.121 86.8684 175.208 86.3331C174.295 85.7978 172.815 85.1995 170.768 84.5382C168.595 83.8139 166.832 83.1211 165.478 82.4599C164.155 81.7671 162.99 80.7752 161.982 79.4841C161.006 78.1615 160.518 76.4453 160.518 74.3355C160.518 72.1942 161.053 70.3678 162.124 68.8563C163.195 67.3134 164.675 66.1482 166.564 65.361C168.454 64.5738 170.595 64.1801 172.988 64.1801C176.861 64.1801 179.947 65.0933 182.246 66.9197C184.576 68.7146 185.82 71.2496 185.978 74.5245H175.917C175.885 73.5168 175.57 72.7611 174.972 72.2572C174.405 71.7534 173.665 71.5015 172.752 71.5015C172.059 71.5015 171.492 71.7062 171.051 72.1155C170.611 72.5249 170.39 73.1074 170.39 73.8632C170.39 74.493 170.626 75.0441 171.099 75.5164C171.603 75.9573 172.217 76.3509 172.941 76.6973C173.665 77.0122 174.736 77.4215 176.153 77.9254C178.263 78.6496 179.994 79.3739 181.349 80.0981C182.734 80.7909 183.915 81.7828 184.891 83.0739C185.899 84.3335 186.403 85.9395 186.403 87.8918C186.403 89.8757 185.899 91.6548 184.891 93.2293C183.915 94.8038 182.482 96.0476 180.593 96.9608C178.735 97.874 176.531 98.3306 173.98 98.3306ZM211.773 92.568H199.964L198.17 98H188.439L200.579 64.6997H211.253L223.346 98H213.568L211.773 92.568ZM209.459 85.4829L205.869 74.7134L202.326 85.4829H209.459ZM235.621 90.9148H245.965V98H226.363V64.6997H235.621V90.9148ZM258.823 72.1155V77.5475H269.451V84.5854H258.823V90.5842H270.868V98H249.565V64.6997H270.868V72.1155H258.823Z"/>
</mask>
<path d="M25.2232 64.6997H26.2232V63.6997H25.2232V64.6997ZM25.2232 72.0683V73.0683H26.2232V72.0683H25.2232ZM11.9031 72.0683V71.0683H10.9031V72.0683H11.9031ZM11.9031 77.9254H10.9031V78.9254H11.9031V77.9254ZM21.7278 77.9254H22.7278V76.9254H21.7278V77.9254ZM21.7278 84.9633V85.9633H22.7278V84.9633H21.7278ZM11.9031 84.9633V83.9633H10.9031V84.9633H11.9031ZM11.9031 98V99H12.9031V98H11.9031ZM2.64513 98H1.64513V99H2.64513V98ZM2.64513 64.6997V63.6997H1.64513V64.6997H2.64513ZM25.2232 64.6997H24.2232V72.0683H25.2232H26.2232V64.6997H25.2232ZM25.2232 72.0683V71.0683H11.9031V72.0683V73.0683H25.2232V72.0683ZM11.9031 72.0683H10.9031V77.9254H11.9031H12.9031V72.0683H11.9031ZM11.9031 77.9254V78.9254H21.7278V77.9254V76.9254H11.9031V77.9254ZM21.7278 77.9254H20.7278V84.9633H21.7278H22.7278V77.9254H21.7278ZM21.7278 84.9633V83.9633H11.9031V84.9633V85.9633H21.7278V84.9633ZM11.9031 84.9633H10.9031V98H11.9031H12.9031V84.9633H11.9031ZM11.9031 98V97H2.64513V98V99H11.9031V98ZM2.64513 98H3.64513V64.6997H2.64513H1.64513V98H2.64513ZM2.64513 64.6997V65.6997H25.2232V64.6997V63.6997H2.64513V64.6997ZM38.3802 90.9148H37.3802V91.9148H38.3802V90.9148ZM48.7245 90.9148H49.7245V89.9148H48.7245V90.9148ZM48.7245 98V99H49.7245V98H48.7245ZM29.1222 98H28.1222V99H29.1222V98ZM29.1222 64.6997V63.6997H28.1222V64.6997H29.1222ZM38.3802 64.6997H39.3802V63.6997H38.3802V64.6997ZM38.3802 90.9148V91.9148H48.7245V90.9148V89.9148H38.3802V90.9148ZM48.7245 90.9148H47.7245V98H48.7245H49.7245V90.9148H48.7245ZM48.7245 98V97H29.1222V98V99H48.7245V98ZM29.1222 98H30.1222V64.6997H29.1222H28.1222V98H29.1222ZM29.1222 64.6997V65.6997H38.3802V64.6997V63.6997H29.1222V64.6997ZM38.3802 64.6997H37.3802V90.9148H38.3802H39.3802V64.6997H38.3802ZM73.3909 92.568L74.3404 92.2543L74.1136 91.568H73.3909V92.568ZM61.5823 92.568V91.568H60.8595L60.6328 92.2543L61.5823 92.568ZM59.7874 98V99H60.5101L60.7369 98.3138L59.7874 98ZM50.0571 98L49.1176 97.6575L48.6282 99H50.0571V98ZM62.1963 64.6997V63.6997H61.4965L61.2568 64.3572L62.1963 64.6997ZM72.8713 64.6997L73.8113 64.3584L73.5721 63.6997H72.8713V64.6997ZM84.9633 98V99H86.3903L85.9033 97.6587L84.9633 98ZM75.1858 98L74.2363 98.3138L74.4631 99H75.1858V98ZM71.0764 85.4829V86.4829H72.4638L72.0251 85.1666L71.0764 85.4829ZM67.4866 74.7134L68.4353 74.3972L67.4803 71.5323L66.5367 74.4009L67.4866 74.7134ZM63.944 85.4829L62.9941 85.1704L62.5623 86.4829H63.944V85.4829ZM73.3909 92.568V91.568H61.5823V92.568V93.568H73.3909V92.568ZM61.5823 92.568L60.6328 92.2543L58.8379 97.6862L59.7874 98L60.7369 98.3138L62.5318 92.8818L61.5823 92.568ZM59.7874 98V97H50.0571V98V99H59.7874V98ZM50.0571 98L50.9966 98.3425L63.1358 65.0422L62.1963 64.6997L61.2568 64.3572L49.1176 97.6575L50.0571 98ZM62.1963 64.6997V65.6997H72.8713V64.6997V63.6997H62.1963V64.6997ZM72.8713 64.6997L71.9314 65.041L84.0234 98.3413L84.9633 98L85.9033 97.6587L73.8113 64.3584L72.8713 64.6997ZM84.9633 98V97H75.1858V98V99H84.9633V98ZM75.1858 98L76.1353 97.6862L74.3404 92.2543L73.3909 92.568L72.4414 92.8818L74.2363 98.3138L75.1858 98ZM71.0764 85.4829L72.0251 85.1666L68.4353 74.3972L67.4866 74.7134L66.5379 75.0296L70.1277 85.7991L71.0764 85.4829ZM67.4866 74.7134L66.5367 74.4009L62.9941 85.1704L63.944 85.4829L64.8939 85.7953L68.4365 75.0259L67.4866 74.7134ZM63.944 85.4829V86.4829H71.0764V85.4829V84.4829H63.944V85.4829ZM91.0038 95.591L90.4054 96.3923L90.412 96.3971L91.0038 95.591ZM86.9889 87.6557V86.6557H85.9323L85.9904 87.7106L86.9889 87.6557ZM96.8609 87.6557L97.8576 87.5748L97.7831 86.6557H96.8609V87.6557ZM97.9 90.2063L97.2332 90.9516L97.9 90.2063ZM102.293 90.3953L102.9 91.1896L102.907 91.1846L102.293 90.3953ZM101.773 86.3331L102.279 85.4704L101.773 86.3331ZM97.3332 84.5382L97.017 85.4869L97.0258 85.4897L97.3332 84.5382ZM92.043 82.4599L91.579 83.3457L91.5915 83.3522L91.6041 83.3584L92.043 82.4599ZM88.5476 79.4841L87.743 80.0779L87.751 80.0888L87.7593 80.0994L88.5476 79.4841ZM88.6893 68.8563L89.5054 69.4344L89.5109 69.4264L88.6893 68.8563ZM93.1294 65.361L92.7447 64.4379H92.7447L93.1294 65.361ZM108.811 66.9197L108.189 67.7027L108.195 67.7074L108.201 67.712L108.811 66.9197ZM112.543 74.5245V75.5245H113.592L113.542 74.4765L112.543 74.5245ZM102.482 74.5245L101.482 74.5557L101.513 75.5245H102.482V74.5245ZM101.537 72.2572L100.873 73.0046L100.883 73.0135L100.893 73.0221L101.537 72.2572ZM97.6166 72.1155L98.2971 72.8483L97.6166 72.1155ZM97.6639 75.5164L96.9568 76.2235L96.9803 76.2471L97.0054 76.269L97.6639 75.5164ZM99.506 76.6973L99.0745 77.5994L99.0908 77.6072L99.1073 77.6143L99.506 76.6973ZM102.718 77.9254L102.383 78.8676L102.393 78.8712L102.718 77.9254ZM107.914 80.0981L107.442 80.9799L107.454 80.9864L107.467 80.9926L107.914 80.0981ZM111.456 83.0739L110.659 83.677L110.667 83.6879L110.675 83.6986L111.456 83.0739ZM111.456 93.2293L110.614 92.6903L110.61 92.6963L110.606 92.7024L111.456 93.2293ZM107.158 96.9608L106.723 96.0605L106.717 96.0634L107.158 96.9608ZM100.545 98.3306V97.3306C96.8299 97.3306 93.8722 96.4564 91.5956 94.785L91.0038 95.591L90.412 96.3971C93.1108 98.3785 96.514 99.3306 100.545 99.3306V98.3306ZM91.0038 95.591L91.6022 94.7898C89.3791 93.1296 88.162 90.7731 87.9874 87.6007L86.9889 87.6557L85.9904 87.7106C86.1936 91.4029 87.6531 94.3368 90.4054 96.3923L91.0038 95.591ZM86.9889 87.6557V88.6557H96.8609V87.6557V86.6557H86.9889V87.6557ZM96.8609 87.6557L95.8642 87.7365C95.97 89.0415 96.372 90.181 97.2332 90.9516L97.9 90.2063L98.5668 89.4611C98.2314 89.161 97.9407 88.6 97.8576 87.5748L96.8609 87.6557ZM97.9 90.2063L97.2332 90.9516C98.0465 91.6792 99.0698 92.0093 100.215 92.0093V91.0093V90.0093C99.4698 90.0093 98.9501 89.804 98.5668 89.4611L97.9 90.2063ZM100.215 91.0093V92.0093C101.226 92.0093 102.149 91.7639 102.9 91.1896L102.293 90.3953L101.685 89.6009C101.366 89.8454 100.903 90.0093 100.215 90.0093V91.0093ZM102.293 90.3953L102.907 91.1846C103.732 90.543 104.143 89.6459 104.143 88.6003H103.143H102.143C102.143 89.0663 101.988 89.3657 101.679 89.6059L102.293 90.3953ZM103.143 88.6003H104.143C104.143 87.2344 103.467 86.1668 102.279 85.4704L101.773 86.3331L101.268 87.1958C101.906 87.57 102.143 88.014 102.143 88.6003H103.143ZM101.773 86.3331L102.279 85.4704C101.267 84.8774 99.7011 84.2523 97.6406 83.5866L97.3332 84.5382L97.0258 85.4897C99.059 86.1466 100.453 86.7181 101.268 87.1958L101.773 86.3331ZM97.3332 84.5382L97.6494 83.5895C95.4995 82.8728 93.7814 82.196 92.4818 81.5613L92.043 82.4599L91.6041 83.3584C93.0126 84.0463 94.8214 84.755 97.017 85.4869L97.3332 84.5382ZM92.043 82.4599L92.507 81.574C91.3223 80.9535 90.2646 80.0586 89.3359 78.8688L88.5476 79.4841L87.7593 80.0994C88.846 81.4917 90.1185 82.5807 91.579 83.3457L92.043 82.4599ZM88.5476 79.4841L89.3522 78.8902C88.5349 77.7829 88.0833 76.2924 88.0833 74.3355H87.0833H86.0833C86.0833 76.5982 86.608 78.5402 87.743 80.0779L88.5476 79.4841ZM87.0833 74.3355H88.0833C88.0833 72.3679 88.5723 70.7515 89.5053 69.4344L88.6893 68.8563L87.8733 68.2783C86.665 69.9841 86.0833 72.0206 86.0833 74.3355H87.0833ZM88.6893 68.8563L89.5109 69.4264C90.4629 68.0545 91.7845 67.0047 93.514 66.2841L93.1294 65.361L92.7447 64.4379C90.6954 65.2918 89.0571 66.5722 87.8677 68.2863L88.6893 68.8563ZM93.1294 65.361L93.514 66.2841C95.2627 65.5555 97.27 65.1801 99.5532 65.1801V64.1801V63.1801C97.05 63.1801 94.7748 63.5921 92.7447 64.4379L93.1294 65.361ZM99.5532 64.1801V65.1801C103.273 65.1801 106.117 66.0561 108.189 67.7027L108.811 66.9197L109.433 66.1368C106.908 64.1306 103.58 63.1801 99.5532 63.1801V64.1801ZM108.811 66.9197L108.201 67.712C110.27 69.306 111.399 71.5529 111.544 74.5725L112.543 74.5245L113.542 74.4765C113.372 70.9463 112.012 68.1233 109.421 66.1275L108.811 66.9197ZM112.543 74.5245V73.5245H102.482V74.5245V75.5245H112.543V74.5245ZM102.482 74.5245L103.481 74.4932C103.444 73.2889 103.056 72.2287 102.181 71.4923L101.537 72.2572L100.893 73.0221C101.215 73.2934 101.457 73.7447 101.482 74.5557L102.482 74.5245ZM101.537 72.2572L102.201 71.5098C101.416 70.8115 100.423 70.5015 99.3171 70.5015V71.5015V72.5015C100.038 72.5015 100.525 72.6953 100.873 73.0046L101.537 72.2572ZM99.3171 71.5015V70.5015C98.4129 70.5015 97.59 70.7756 96.9362 71.3827L97.6166 72.1155L98.2971 72.8483C98.525 72.6367 98.8357 72.5015 99.3171 72.5015V71.5015ZM97.6166 72.1155L96.9362 71.3827C96.2418 72.0275 95.9553 72.9054 95.9553 73.8632H96.9553H97.9553C97.9553 73.3095 98.1097 73.0223 98.2971 72.8483L97.6166 72.1155ZM96.9553 73.8632H95.9553C95.9553 74.7755 96.3095 75.5763 96.9568 76.2235L97.6639 75.5164L98.371 74.8093C98.0735 74.5119 97.9553 74.2104 97.9553 73.8632H96.9553ZM97.6639 75.5164L97.0054 76.269C97.5897 76.7803 98.2839 77.2213 99.0745 77.5994L99.506 76.6973L99.9375 75.7951C99.2796 75.4805 98.7457 75.1342 98.3224 74.7638L97.6639 75.5164ZM99.506 76.6973L99.1073 77.6143C99.8635 77.9431 100.96 78.3616 102.383 78.8676L102.718 77.9254L103.053 76.9831C101.642 76.4815 100.597 76.0812 99.9047 75.7802L99.506 76.6973ZM102.718 77.9254L102.393 78.8712C104.473 79.5851 106.151 80.2894 107.442 80.9799L107.914 80.0981L108.385 79.2164C106.968 78.4584 105.183 77.7141 103.043 76.9795L102.718 77.9254ZM107.914 80.0981L107.467 80.9926C108.708 81.6134 109.771 82.5031 110.659 83.677L111.456 83.0739L112.254 82.4708C111.189 81.0626 109.89 79.9684 108.361 79.2037L107.914 80.0981ZM111.456 83.0739L110.675 83.6986C111.513 84.7458 111.968 86.1172 111.968 87.8918H112.968H113.968C113.968 85.7618 113.415 83.9212 112.237 82.4492L111.456 83.0739ZM112.968 87.8918H111.968C111.968 89.6969 111.512 91.2867 110.614 92.6903L111.456 93.2293L112.299 93.7684C113.416 92.0229 113.968 90.0545 113.968 87.8918H112.968ZM111.456 93.2293L110.606 92.7024C109.743 94.0949 108.465 95.2186 106.723 96.0605L107.158 96.9608L107.593 97.8612C109.63 96.8767 111.217 95.5127 112.306 93.7563L111.456 93.2293ZM107.158 96.9608L106.717 96.0634C105.024 96.8953 102.978 97.3306 100.545 97.3306V98.3306V99.3306C103.214 99.3306 105.576 98.8528 107.599 97.8583L107.158 96.9608ZM147.077 64.6997H148.077V63.6997H147.077V64.6997ZM147.077 98V99H148.077V98H147.077ZM137.819 98H136.819V99H137.819V98ZM137.819 84.6326H138.819V83.6326H137.819V84.6326ZM126.53 84.6326V83.6326H125.53V84.6326H126.53ZM126.53 98V99H127.53V98H126.53ZM117.272 98H116.272V99H117.272V98ZM117.272 64.6997V63.6997H116.272V64.6997H117.272ZM126.53 64.6997H127.53V63.6997H126.53V64.6997ZM126.53 77.2168H125.53V78.2168H126.53V77.2168ZM137.819 77.2168V78.2168H138.819V77.2168H137.819ZM137.819 64.6997V63.6997H136.819V64.6997H137.819ZM147.077 64.6997H146.077V98H147.077H148.077V64.6997H147.077ZM147.077 98V97H137.819V98V99H147.077V98ZM137.819 98H138.819V84.6326H137.819H136.819V98H137.819ZM137.819 84.6326V83.6326H126.53V84.6326V85.6326H137.819V84.6326ZM126.53 84.6326H125.53V98H126.53H127.53V84.6326H126.53ZM126.53 98V97H117.272V98V99H126.53V98ZM117.272 98H118.272V64.6997H117.272H116.272V98H117.272ZM117.272 64.6997V65.6997H126.53V64.6997V63.6997H117.272V64.6997ZM126.53 64.6997H125.53V77.2168H126.53H127.53V64.6997H126.53ZM126.53 77.2168V78.2168H137.819V77.2168V76.2168H126.53V77.2168ZM137.819 77.2168H138.819V64.6997H137.819H136.819V77.2168H137.819ZM137.819 64.6997V65.6997H147.077V64.6997V63.6997H137.819V64.6997ZM164.439 95.591L163.84 96.3923L163.847 96.3971L164.439 95.591ZM160.424 87.6557V86.6557H159.367L159.425 87.7106L160.424 87.6557ZM170.296 87.6557L171.292 87.5748L171.218 86.6557H170.296V87.6557ZM171.335 90.2063L170.668 90.9516L171.335 90.2063ZM175.728 90.3953L176.335 91.1896L176.342 91.1846L175.728 90.3953ZM175.208 86.3331L175.714 85.4704L175.208 86.3331ZM170.768 84.5382L170.452 85.4869L170.461 85.4897L170.768 84.5382ZM165.478 82.4599L165.014 83.3457L165.026 83.3522L165.039 83.3584L165.478 82.4599ZM161.982 79.4841L161.178 80.0779L161.186 80.0888L161.194 80.0994L161.982 79.4841ZM162.124 68.8563L162.94 69.4344L162.946 69.4264L162.124 68.8563ZM166.564 65.361L166.18 64.4379L166.564 65.361ZM182.246 66.9197L181.624 67.7027L181.63 67.7074L181.636 67.712L182.246 66.9197ZM185.978 74.5245V75.5245H187.027L186.976 74.4765L185.978 74.5245ZM175.917 74.5245L174.917 74.5557L174.947 75.5245H175.917V74.5245ZM174.972 72.2572L174.308 73.0046L174.318 73.0135L174.328 73.0221L174.972 72.2572ZM171.051 72.1155L171.732 72.8483L171.051 72.1155ZM171.099 75.5164L170.392 76.2235L170.415 76.2471L170.44 76.269L171.099 75.5164ZM172.941 76.6973L172.509 77.5994L172.526 77.6072L172.542 77.6143L172.941 76.6973ZM176.153 77.9254L175.818 78.8676L175.828 78.8712L176.153 77.9254ZM181.349 80.0981L180.877 80.9799L180.889 80.9864L180.901 80.9926L181.349 80.0981ZM184.891 83.0739L184.093 83.677L184.102 83.6879L184.11 83.6986L184.891 83.0739ZM184.891 93.2293L184.049 92.6903L184.045 92.6963L184.041 92.7024L184.891 93.2293ZM180.593 96.9608L180.158 96.0605L180.152 96.0634L180.593 96.9608ZM173.98 98.3306V97.3306C170.265 97.3306 167.307 96.4564 165.03 94.785L164.439 95.591L163.847 96.3971C166.546 98.3785 169.949 99.3306 173.98 99.3306V98.3306ZM164.439 95.591L165.037 94.7898C162.814 93.1296 161.597 90.7731 161.422 87.6007L160.424 87.6557L159.425 87.7106C159.628 91.4029 161.088 94.3368 163.84 96.3923L164.439 95.591ZM160.424 87.6557V88.6557H170.296V87.6557V86.6557H160.424V87.6557ZM170.296 87.6557L169.299 87.7365C169.405 89.0415 169.807 90.181 170.668 90.9516L171.335 90.2063L172.002 89.4611C171.666 89.161 171.376 88.6 171.292 87.5748L170.296 87.6557ZM171.335 90.2063L170.668 90.9516C171.481 91.6792 172.505 92.0093 173.649 92.0093V91.0093V90.0093C172.905 90.0093 172.385 89.804 172.002 89.4611L171.335 90.2063ZM173.649 91.0093V92.0093C174.661 92.0093 175.584 91.7639 176.335 91.1896L175.728 90.3953L175.12 89.6009C174.801 89.8454 174.338 90.0093 173.649 90.0093V91.0093ZM175.728 90.3953L176.342 91.1846C177.166 90.543 177.578 89.6459 177.578 88.6003H176.578H175.578C175.578 89.0663 175.422 89.3657 175.114 89.6059L175.728 90.3953ZM176.578 88.6003H177.578C177.578 87.2344 176.902 86.1668 175.714 85.4704L175.208 86.3331L174.702 87.1958C175.341 87.57 175.578 88.014 175.578 88.6003H176.578ZM175.208 86.3331L175.714 85.4704C174.702 84.8774 173.136 84.2523 171.075 83.5866L170.768 84.5382L170.461 85.4897C172.494 86.1466 173.888 86.7181 174.702 87.1958L175.208 86.3331ZM170.768 84.5382L171.084 83.5895C168.934 82.8728 167.216 82.196 165.917 81.5613L165.478 82.4599L165.039 83.3584C166.447 84.0463 168.256 84.755 170.452 85.4869L170.768 84.5382ZM165.478 82.4599L165.942 81.574C164.757 80.9535 163.699 80.0586 162.771 78.8688L161.982 79.4841L161.194 80.0994C162.281 81.4917 163.553 82.5807 165.014 83.3457L165.478 82.4599ZM161.982 79.4841L162.787 78.8902C161.97 77.7829 161.518 76.2924 161.518 74.3355H160.518H159.518C159.518 76.5982 160.043 78.5402 161.178 80.0779L161.982 79.4841ZM160.518 74.3355H161.518C161.518 72.3679 162.007 70.7515 162.94 69.4344L162.124 68.8563L161.308 68.2783C160.1 69.9841 159.518 72.0206 159.518 74.3355H160.518ZM162.124 68.8563L162.946 69.4264C163.898 68.0545 165.219 67.0047 166.949 66.2841L166.564 65.361L166.18 64.4379C164.13 65.2918 162.492 66.5722 161.303 68.2863L162.124 68.8563ZM166.564 65.361L166.949 66.2841C168.697 65.5555 170.705 65.1801 172.988 65.1801V64.1801V63.1801C170.485 63.1801 168.21 63.5921 166.18 64.4379L166.564 65.361ZM172.988 64.1801V65.1801C176.708 65.1801 179.551 66.0561 181.624 67.7027L182.246 66.9197L182.868 66.1368C180.343 64.1306 177.015 63.1801 172.988 63.1801V64.1801ZM182.246 66.9197L181.636 67.712C183.705 69.306 184.833 71.5529 184.979 74.5725L185.978 74.5245L186.976 74.4765C186.807 70.9463 185.447 68.1233 182.856 66.1275L182.246 66.9197ZM185.978 74.5245V73.5245H175.917V74.5245V75.5245H185.978V74.5245ZM175.917 74.5245L176.916 74.4932C176.878 73.2889 176.49 72.2287 175.616 71.4923L174.972 72.2572L174.328 73.0221C174.65 73.2934 174.892 73.7447 174.917 74.5557L175.917 74.5245ZM174.972 72.2572L175.636 71.5098C174.851 70.8115 173.857 70.5015 172.752 70.5015V71.5015V72.5015C173.473 72.5015 173.96 72.6953 174.308 73.0046L174.972 72.2572ZM172.752 71.5015V70.5015C171.848 70.5015 171.025 70.7756 170.371 71.3827L171.051 72.1155L171.732 72.8483C171.96 72.6367 172.271 72.5015 172.752 72.5015V71.5015ZM171.051 72.1155L170.371 71.3827C169.677 72.0275 169.39 72.9054 169.39 73.8632H170.39H171.39C171.39 73.3095 171.545 73.0223 171.732 72.8483L171.051 72.1155ZM170.39 73.8632H169.39C169.39 74.7755 169.744 75.5763 170.392 76.2235L171.099 75.5164L171.806 74.8093C171.508 74.5119 171.39 74.2104 171.39 73.8632H170.39ZM171.099 75.5164L170.44 76.269C171.025 76.7803 171.719 77.2213 172.509 77.5994L172.941 76.6973L173.372 75.7951C172.714 75.4805 172.18 75.1342 171.757 74.7638L171.099 75.5164ZM172.941 76.6973L172.542 77.6143C173.298 77.9431 174.395 78.3616 175.818 78.8676L176.153 77.9254L176.488 76.9831C175.077 76.4815 174.032 76.0812 173.34 75.7802L172.941 76.6973ZM176.153 77.9254L175.828 78.8712C177.908 79.5851 179.586 80.2894 180.877 80.9799L181.349 80.0981L181.82 79.2164C180.403 78.4584 178.617 77.7141 176.477 76.9795L176.153 77.9254ZM181.349 80.0981L180.901 80.9926C182.143 81.6134 183.206 82.5031 184.093 83.677L184.891 83.0739L185.689 82.4708C184.624 81.0626 183.325 79.9684 181.796 79.2037L181.349 80.0981ZM184.891 83.0739L184.11 83.6986C184.948 84.7458 185.403 86.1172 185.403 87.8918H186.403H187.403C187.403 85.7618 186.85 83.9212 185.672 82.4492L184.891 83.0739ZM186.403 87.8918H185.403C185.403 89.6969 184.947 91.2867 184.049 92.6903L184.891 93.2293L185.733 93.7684C186.85 92.0229 187.403 90.0545 187.403 87.8918H186.403ZM184.891 93.2293L184.041 92.7024C183.178 94.0949 181.899 95.2186 180.158 96.0605L180.593 96.9608L181.028 97.8612C183.065 96.8767 184.652 95.5127 185.741 93.7563L184.891 93.2293ZM180.593 96.9608L180.152 96.0634C178.459 96.8953 176.412 97.3306 173.98 97.3306V98.3306V99.3306C176.649 99.3306 179.011 98.8528 181.034 97.8583L180.593 96.9608ZM211.773 92.568L212.723 92.2543L212.496 91.568H211.773V92.568ZM199.964 92.568V91.568H199.242L199.015 92.2543L199.964 92.568ZM198.17 98V99H198.892L199.119 98.3138L198.17 98ZM188.439 98L187.5 97.6575L187.01 99H188.439V98ZM200.579 64.6997V63.6997H199.879L199.639 64.3572L200.579 64.6997ZM211.253 64.6997L212.193 64.3584L211.954 63.6997H211.253V64.6997ZM223.346 98V99H224.773L224.285 97.6587L223.346 98ZM213.568 98L212.618 98.3138L212.845 99H213.568V98ZM209.459 85.4829V86.4829H210.846L210.407 85.1666L209.459 85.4829ZM205.869 74.7134L206.817 74.3972L205.862 71.5323L204.919 74.4009L205.869 74.7134ZM202.326 85.4829L201.376 85.1704L200.945 86.4829H202.326V85.4829ZM211.773 92.568V91.568H199.964V92.568V93.568H211.773V92.568ZM199.964 92.568L199.015 92.2543L197.22 97.6862L198.17 98L199.119 98.3138L200.914 92.8818L199.964 92.568ZM198.17 98V97H188.439V98V99H198.17V98ZM188.439 98L189.379 98.3425L201.518 65.0422L200.579 64.6997L199.639 64.3572L187.5 97.6575L188.439 98ZM200.579 64.6997V65.6997H211.253V64.6997V63.6997H200.579V64.6997ZM211.253 64.6997L210.314 65.041L222.406 98.3413L223.346 98L224.285 97.6587L212.193 64.3584L211.253 64.6997ZM223.346 98V97H213.568V98V99H223.346V98ZM213.568 98L214.517 97.6862L212.723 92.2543L211.773 92.568L210.824 92.8818L212.618 98.3138L213.568 98ZM209.459 85.4829L210.407 85.1666L206.817 74.3972L205.869 74.7134L204.92 75.0296L208.51 85.7991L209.459 85.4829ZM205.869 74.7134L204.919 74.4009L201.376 85.1704L202.326 85.4829L203.276 85.7953L206.819 75.0259L205.869 74.7134ZM202.326 85.4829V86.4829H209.459V85.4829V84.4829H202.326V85.4829ZM235.621 90.9148H234.621V91.9148H235.621V90.9148ZM245.965 90.9148H246.965V89.9148H245.965V90.9148ZM245.965 98V99H246.965V98H245.965ZM226.363 98H225.363V99H226.363V98ZM226.363 64.6997V63.6997H225.363V64.6997H226.363ZM235.621 64.6997H236.621V63.6997H235.621V64.6997ZM235.621 90.9148V91.9148H245.965V90.9148V89.9148H235.621V90.9148ZM245.965 90.9148H244.965V98H245.965H246.965V90.9148H245.965ZM245.965 98V97H226.363V98V99H245.965V98ZM226.363 98H227.363V64.6997H226.363H225.363V98H226.363ZM226.363 64.6997V65.6997H235.621V64.6997V63.6997H226.363V64.6997ZM235.621 64.6997H234.621V90.9148H235.621H236.621V64.6997H235.621ZM258.823 72.1155V71.1155H257.823V72.1155H258.823ZM258.823 77.5475H257.823V78.5475H258.823V77.5475ZM269.451 77.5475H270.451V76.5475H269.451V77.5475ZM269.451 84.5854V85.5854H270.451V84.5854H269.451ZM258.823 84.5854V83.5854H257.823V84.5854H258.823ZM258.823 90.5842H257.823V91.5842H258.823V90.5842ZM270.868 90.5842H271.868V89.5842H270.868V90.5842ZM270.868 98V99H271.868V98H270.868ZM249.565 98H248.565V99H249.565V98ZM249.565 64.6997V63.6997H248.565V64.6997H249.565ZM270.868 64.6997H271.868V63.6997H270.868V64.6997ZM270.868 72.1155V73.1155H271.868V72.1155H270.868ZM258.823 72.1155H257.823V77.5475H258.823H259.823V72.1155H258.823ZM258.823 77.5475V78.5475H269.451V77.5475V76.5475H258.823V77.5475ZM269.451 77.5475H268.451V84.5854H269.451H270.451V77.5475H269.451ZM269.451 84.5854V83.5854H258.823V84.5854V85.5854H269.451V84.5854ZM258.823 84.5854H257.823V90.5842H258.823H259.823V84.5854H258.823ZM258.823 90.5842V91.5842H270.868V90.5842V89.5842H258.823V90.5842ZM270.868 90.5842H269.868V98H270.868H271.868V90.5842H270.868ZM270.868 98V97H249.565V98V99H270.868V98ZM249.565 98H250.565V64.6997H249.565H248.565V98H249.565ZM249.565 64.6997V65.6997H270.868V64.6997V63.6997H249.565V64.6997ZM270.868 64.6997H269.868V72.1155H270.868H271.868V64.6997H270.868ZM270.868 72.1155V71.1155H258.823V72.1155V73.1155H270.868V72.1155Z" fill="#E83F25" mask="url(#path-2-outside-1_98_136)"/>
<mask id="path-4-outside-2_98_136" maskUnits="userSpaceOnUse" x="1" y="109" width="271" height="37" fill="black">
<rect fill="white" x="1" y="109" width="271" height="37"/>
<path d="M25.2232 110.7V118.068H11.9031V123.925H21.7278V130.963H11.9031V144H2.64513V110.7H25.2232ZM38.3802 136.915H48.7245V144H29.1223V110.7H38.3802V136.915ZM73.3909 138.568H61.5823L59.7874 144H50.0571L62.1963 110.7H72.8713L84.9633 144H75.1858L73.3909 138.568ZM71.0764 131.483L67.4866 120.713L63.944 131.483H71.0764ZM100.545 144.331C96.6719 144.331 93.4915 143.417 91.0038 141.591C88.5161 139.733 87.1778 137.088 86.9889 133.656H96.8609C96.9553 134.821 97.3017 135.671 97.9 136.206C98.4983 136.742 99.2698 137.009 100.215 137.009C101.065 137.009 101.758 136.805 102.293 136.395C102.86 135.954 103.143 135.356 103.143 134.6C103.143 133.624 102.686 132.868 101.773 132.333C100.86 131.798 99.38 131.199 97.3332 130.538C95.1604 129.814 93.397 129.121 92.043 128.46C90.7204 127.767 89.5553 126.775 88.5476 125.484C87.5714 124.162 87.0833 122.445 87.0833 120.336C87.0833 118.194 87.6187 116.368 88.6893 114.856C89.76 113.313 91.24 112.148 93.1294 111.361C95.0187 110.574 97.16 110.18 99.5532 110.18C103.426 110.18 106.512 111.093 108.811 112.92C111.141 114.715 112.385 117.25 112.543 120.524H102.482C102.45 119.517 102.135 118.761 101.537 118.257C100.97 117.753 100.23 117.501 99.3171 117.501C98.6243 117.501 98.0575 117.706 97.6166 118.116C97.1758 118.525 96.9553 119.107 96.9553 119.863C96.9553 120.493 97.1915 121.044 97.6639 121.516C98.1677 121.957 98.7817 122.351 99.506 122.697C100.23 123.012 101.301 123.422 102.718 123.925C104.828 124.65 106.56 125.374 107.914 126.098C109.299 126.791 110.48 127.783 111.456 129.074C112.464 130.333 112.968 131.939 112.968 133.892C112.968 135.876 112.464 137.655 111.456 139.229C110.48 140.804 109.047 142.048 107.158 142.961C105.3 143.874 103.096 144.331 100.545 144.331ZM147.077 110.7V144H137.819V130.633H126.53V144H117.272V110.7H126.53V123.217H137.819V110.7H147.077ZM173.98 144.331C170.107 144.331 166.926 143.417 164.439 141.591C161.951 139.733 160.613 137.088 160.424 133.656H170.296C170.39 134.821 170.737 135.671 171.335 136.206C171.933 136.742 172.705 137.009 173.649 137.009C174.5 137.009 175.192 136.805 175.728 136.395C176.294 135.954 176.578 135.356 176.578 134.6C176.578 133.624 176.121 132.868 175.208 132.333C174.295 131.798 172.815 131.199 170.768 130.538C168.595 129.814 166.832 129.121 165.478 128.46C164.155 127.767 162.99 126.775 161.982 125.484C161.006 124.162 160.518 122.445 160.518 120.336C160.518 118.194 161.053 116.368 162.124 114.856C163.195 113.313 164.675 112.148 166.564 111.361C168.454 110.574 170.595 110.18 172.988 110.18C176.861 110.18 179.947 111.093 182.246 112.92C184.576 114.715 185.82 117.25 185.978 120.524H175.917C175.885 119.517 175.57 118.761 174.972 118.257C174.405 117.753 173.665 117.501 172.752 117.501C172.059 117.501 171.492 117.706 171.051 118.116C170.611 118.525 170.39 119.107 170.39 119.863C170.39 120.493 170.626 121.044 171.099 121.516C171.603 121.957 172.217 122.351 172.941 122.697C173.665 123.012 174.736 123.422 176.153 123.925C178.263 124.65 179.994 125.374 181.349 126.098C182.734 126.791 183.915 127.783 184.891 129.074C185.899 130.333 186.403 131.939 186.403 133.892C186.403 135.876 185.899 137.655 184.891 139.229C183.915 140.804 182.482 142.048 180.593 142.961C178.735 143.874 176.531 144.331 173.98 144.331ZM211.773 138.568H199.964L198.17 144H188.439L200.579 110.7H211.253L223.346 144H213.568L211.773 138.568ZM209.459 131.483L205.869 120.713L202.326 131.483H209.459ZM235.621 136.915H245.965V144H226.363V110.7H235.621V136.915ZM258.823 118.116V123.547H269.451V130.585H258.823V136.584H270.868V144H249.565V110.7H270.868V118.116H258.823Z"/>
</mask>
<path d="M25.2232 110.7H26.2232V109.7H25.2232V110.7ZM25.2232 118.068V119.068H26.2232V118.068H25.2232ZM11.9031 118.068V117.068H10.9031V118.068H11.9031ZM11.9031 123.925H10.9031V124.925H11.9031V123.925ZM21.7278 123.925H22.7278V122.925H21.7278V123.925ZM21.7278 130.963V131.963H22.7278V130.963H21.7278ZM11.9031 130.963V129.963H10.9031V130.963H11.9031ZM11.9031 144V145H12.9031V144H11.9031ZM2.64513 144H1.64513V145H2.64513V144ZM2.64513 110.7V109.7H1.64513V110.7H2.64513ZM25.2232 110.7H24.2232V118.068H25.2232H26.2232V110.7H25.2232ZM25.2232 118.068V117.068H11.9031V118.068V119.068H25.2232V118.068ZM11.9031 118.068H10.9031V123.925H11.9031H12.9031V118.068H11.9031ZM11.9031 123.925V124.925H21.7278V123.925V122.925H11.9031V123.925ZM21.7278 123.925H20.7278V130.963H21.7278H22.7278V123.925H21.7278ZM21.7278 130.963V129.963H11.9031V130.963V131.963H21.7278V130.963ZM11.9031 130.963H10.9031V144H11.9031H12.9031V130.963H11.9031ZM11.9031 144V143H2.64513V144V145H11.9031V144ZM2.64513 144H3.64513V110.7H2.64513H1.64513V144H2.64513ZM2.64513 110.7V111.7H25.2232V110.7V109.7H2.64513V110.7ZM38.3802 136.915H37.3802V137.915H38.3802V136.915ZM48.7245 136.915H49.7245V135.915H48.7245V136.915ZM48.7245 144V145H49.7245V144H48.7245ZM29.1222 144H28.1222V145H29.1222V144ZM29.1222 110.7V109.7H28.1222V110.7H29.1222ZM38.3802 110.7H39.3802V109.7H38.3802V110.7ZM38.3802 136.915V137.915H48.7245V136.915V135.915H38.3802V136.915ZM48.7245 136.915H47.7245V144H48.7245H49.7245V136.915H48.7245ZM48.7245 144V143H29.1222V144V145H48.7245V144ZM29.1222 144H30.1222V110.7H29.1222H28.1222V144H29.1222ZM29.1222 110.7V111.7H38.3802V110.7V109.7H29.1222V110.7ZM38.3802 110.7H37.3802V136.915H38.3802H39.3802V110.7H38.3802ZM73.3909 138.568L74.3404 138.254L74.1136 137.568H73.3909V138.568ZM61.5823 138.568V137.568H60.8595L60.6328 138.254L61.5823 138.568ZM59.7874 144V145H60.5101L60.7369 144.314L59.7874 144ZM50.0571 144L49.1176 143.658L48.6282 145H50.0571V144ZM62.1963 110.7V109.7H61.4965L61.2568 110.357L62.1963 110.7ZM72.8713 110.7L73.8113 110.358L73.5721 109.7H72.8713V110.7ZM84.9633 144V145H86.3903L85.9033 143.659L84.9633 144ZM75.1858 144L74.2363 144.314L74.4631 145H75.1858V144ZM71.0764 131.483V132.483H72.4638L72.0251 131.167L71.0764 131.483ZM67.4866 120.713L68.4353 120.397L67.4803 117.532L66.5367 120.401L67.4866 120.713ZM63.944 131.483L62.9941 131.17L62.5623 132.483H63.944V131.483ZM73.3909 138.568V137.568H61.5823V138.568V139.568H73.3909V138.568ZM61.5823 138.568L60.6328 138.254L58.8379 143.686L59.7874 144L60.7369 144.314L62.5318 138.882L61.5823 138.568ZM59.7874 144V143H50.0571V144V145H59.7874V144ZM50.0571 144L50.9966 144.342L63.1358 111.042L62.1963 110.7L61.2568 110.357L49.1176 143.658L50.0571 144ZM62.1963 110.7V111.7H72.8713V110.7V109.7H62.1963V110.7ZM72.8713 110.7L71.9314 111.041L84.0234 144.341L84.9633 144L85.9033 143.659L73.8113 110.358L72.8713 110.7ZM84.9633 144V143H75.1858V144V145H84.9633V144ZM75.1858 144L76.1353 143.686L74.3404 138.254L73.3909 138.568L72.4414 138.882L74.2363 144.314L75.1858 144ZM71.0764 131.483L72.0251 131.167L68.4353 120.397L67.4866 120.713L66.5379 121.03L70.1277 131.799L71.0764 131.483ZM67.4866 120.713L66.5367 120.401L62.9941 131.17L63.944 131.483L64.8939 131.795L68.4365 121.026L67.4866 120.713ZM63.944 131.483V132.483H71.0764V131.483V130.483H63.944V131.483ZM91.0038 141.591L90.4054 142.392L90.412 142.397L91.0038 141.591ZM86.9889 133.656V132.656H85.9323L85.9904 133.711L86.9889 133.656ZM96.8609 133.656L97.8576 133.575L97.7831 132.656H96.8609V133.656ZM97.9 136.206L97.2332 136.952L97.9 136.206ZM102.293 136.395L102.9 137.19L102.907 137.185L102.293 136.395ZM101.773 132.333L102.279 131.47L101.773 132.333ZM97.3332 130.538L97.017 131.487L97.0258 131.49L97.3332 130.538ZM92.043 128.46L91.579 129.346L91.5915 129.352L91.6041 129.358L92.043 128.46ZM88.5476 125.484L87.743 126.078L87.751 126.089L87.7593 126.099L88.5476 125.484ZM88.6893 114.856L89.5054 115.434L89.5109 115.426L88.6893 114.856ZM93.1294 111.361L92.7447 110.438H92.7447L93.1294 111.361ZM108.811 112.92L108.189 113.703L108.195 113.707L108.201 113.712L108.811 112.92ZM112.543 120.524V121.524H113.592L113.542 120.476L112.543 120.524ZM102.482 120.524L101.482 120.556L101.513 121.524H102.482V120.524ZM101.537 118.257L100.873 119.005L100.883 119.014L100.893 119.022L101.537 118.257ZM97.6166 118.116L98.2971 118.848L97.6166 118.116ZM97.6639 121.516L96.9568 122.224L96.9803 122.247L97.0054 122.269L97.6639 121.516ZM99.506 122.697L99.0745 123.599L99.0908 123.607L99.1073 123.614L99.506 122.697ZM102.718 123.925L102.383 124.868L102.393 124.871L102.718 123.925ZM107.914 126.098L107.442 126.98L107.454 126.986L107.467 126.993L107.914 126.098ZM111.456 129.074L110.659 129.677L110.667 129.688L110.675 129.699L111.456 129.074ZM111.456 139.229L110.614 138.69L110.61 138.696L110.606 138.702L111.456 139.229ZM107.158 142.961L106.723 142.06L106.717 142.063L107.158 142.961ZM100.545 144.331V143.331C96.8299 143.331 93.8722 142.456 91.5956 140.785L91.0038 141.591L90.412 142.397C93.1108 144.379 96.514 145.331 100.545 145.331V144.331ZM91.0038 141.591L91.6022 140.79C89.3791 139.13 88.162 136.773 87.9874 133.601L86.9889 133.656L85.9904 133.711C86.1936 137.403 87.6531 140.337 90.4054 142.392L91.0038 141.591ZM86.9889 133.656V134.656H96.8609V133.656V132.656H86.9889V133.656ZM96.8609 133.656L95.8642 133.736C95.97 135.042 96.372 136.181 97.2332 136.952L97.9 136.206L98.5668 135.461C98.2314 135.161 97.9407 134.6 97.8576 133.575L96.8609 133.656ZM97.9 136.206L97.2332 136.952C98.0465 137.679 99.0698 138.009 100.215 138.009V137.009V136.009C99.4698 136.009 98.9501 135.804 98.5668 135.461L97.9 136.206ZM100.215 137.009V138.009C101.226 138.009 102.149 137.764 102.9 137.19L102.293 136.395L101.685 135.601C101.366 135.845 100.903 136.009 100.215 136.009V137.009ZM102.293 136.395L102.907 137.185C103.732 136.543 104.143 135.646 104.143 134.6H103.143H102.143C102.143 135.066 101.988 135.366 101.679 135.606L102.293 136.395ZM103.143 134.6H104.143C104.143 133.234 103.467 132.167 102.279 131.47L101.773 132.333L101.268 133.196C101.906 133.57 102.143 134.014 102.143 134.6H103.143ZM101.773 132.333L102.279 131.47C101.267 130.877 99.7011 130.252 97.6406 129.587L97.3332 130.538L97.0258 131.49C99.059 132.147 100.453 132.718 101.268 133.196L101.773 132.333ZM97.3332 130.538L97.6494 129.589C95.4995 128.873 93.7814 128.196 92.4818 127.561L92.043 128.46L91.6041 129.358C93.0126 130.046 94.8214 130.755 97.017 131.487L97.3332 130.538ZM92.043 128.46L92.507 127.574C91.3223 126.954 90.2646 126.059 89.3359 124.869L88.5476 125.484L87.7593 126.099C88.846 127.492 90.1185 128.581 91.579 129.346L92.043 128.46ZM88.5476 125.484L89.3522 124.89C88.5349 123.783 88.0833 122.292 88.0833 120.336H87.0833H86.0833C86.0833 122.598 86.608 124.54 87.743 126.078L88.5476 125.484ZM87.0833 120.336H88.0833C88.0833 118.368 88.5723 116.752 89.5053 115.434L88.6893 114.856L87.8733 114.278C86.665 115.984 86.0833 118.021 86.0833 120.336H87.0833ZM88.6893 114.856L89.5109 115.426C90.4629 114.054 91.7845 113.005 93.514 112.284L93.1294 111.361L92.7447 110.438C90.6954 111.292 89.0571 112.572 87.8677 114.286L88.6893 114.856ZM93.1294 111.361L93.514 112.284C95.2627 111.555 97.27 111.18 99.5532 111.18V110.18V109.18C97.05 109.18 94.7748 109.592 92.7447 110.438L93.1294 111.361ZM99.5532 110.18V111.18C103.273 111.18 106.117 112.056 108.189 113.703L108.811 112.92L109.433 112.137C106.908 110.131 103.58 109.18 99.5532 109.18V110.18ZM108.811 112.92L108.201 113.712C110.27 115.306 111.399 117.553 111.544 120.573L112.543 120.524L113.542 120.476C113.372 116.946 112.012 114.123 109.421 112.128L108.811 112.92ZM112.543 120.524V119.524H102.482V120.524V121.524H112.543V120.524ZM102.482 120.524L103.481 120.493C103.444 119.289 103.056 118.229 102.181 117.492L101.537 118.257L100.893 119.022C101.215 119.293 101.457 119.745 101.482 120.556L102.482 120.524ZM101.537 118.257L102.201 117.51C101.416 116.811 100.423 116.501 99.3171 116.501V117.501V118.501C100.038 118.501 100.525 118.695 100.873 119.005L101.537 118.257ZM99.3171 117.501V116.501C98.4129 116.501 97.59 116.776 96.9362 117.383L97.6166 118.116L98.2971 118.848C98.525 118.637 98.8357 118.501 99.3171 118.501V117.501ZM97.6166 118.116L96.9362 117.383C96.2418 118.027 95.9553 118.905 95.9553 119.863H96.9553H97.9553C97.9553 119.309 98.1097 119.022 98.2971 118.848L97.6166 118.116ZM96.9553 119.863H95.9553C95.9553 120.776 96.3095 121.576 96.9568 122.224L97.6639 121.516L98.371 120.809C98.0735 120.512 97.9553 120.21 97.9553 119.863H96.9553ZM97.6639 121.516L97.0054 122.269C97.5897 122.78 98.2839 123.221 99.0745 123.599L99.506 122.697L99.9375 121.795C99.2796 121.48 98.7457 121.134 98.3224 120.764L97.6639 121.516ZM99.506 122.697L99.1073 123.614C99.8635 123.943 100.96 124.362 102.383 124.868L102.718 123.925L103.053 122.983C101.642 122.481 100.597 122.081 99.9047 121.78L99.506 122.697ZM102.718 123.925L102.393 124.871C104.473 125.585 106.151 126.289 107.442 126.98L107.914 126.098L108.385 125.216C106.968 124.458 105.183 123.714 103.043 122.98L102.718 123.925ZM107.914 126.098L107.467 126.993C108.708 127.613 109.771 128.503 110.659 129.677L111.456 129.074L112.254 128.471C111.189 127.063 109.89 125.968 108.361 125.204L107.914 126.098ZM111.456 129.074L110.675 129.699C111.513 130.746 111.968 132.117 111.968 133.892H112.968H113.968C113.968 131.762 113.415 129.921 112.237 128.449L111.456 129.074ZM112.968 133.892H111.968C111.968 135.697 111.512 137.287 110.614 138.69L111.456 139.229L112.299 139.768C113.416 138.023 113.968 136.054 113.968 133.892H112.968ZM111.456 139.229L110.606 138.702C109.743 140.095 108.465 141.219 106.723 142.06L107.158 142.961L107.593 143.861C109.63 142.877 111.217 141.513 112.306 139.756L111.456 139.229ZM107.158 142.961L106.717 142.063C105.024 142.895 102.978 143.331 100.545 143.331V144.331V145.331C103.214 145.331 105.576 144.853 107.599 143.858L107.158 142.961ZM147.077 110.7H148.077V109.7H147.077V110.7ZM147.077 144V145H148.077V144H147.077ZM137.819 144H136.819V145H137.819V144ZM137.819 130.633H138.819V129.633H137.819V130.633ZM126.53 130.633V129.633H125.53V130.633H126.53ZM126.53 144V145H127.53V144H126.53ZM117.272 144H116.272V145H117.272V144ZM117.272 110.7V109.7H116.272V110.7H117.272ZM126.53 110.7H127.53V109.7H126.53V110.7ZM126.53 123.217H125.53V124.217H126.53V123.217ZM137.819 123.217V124.217H138.819V123.217H137.819ZM137.819 110.7V109.7H136.819V110.7H137.819ZM147.077 110.7H146.077V144H147.077H148.077V110.7H147.077ZM147.077 144V143H137.819V144V145H147.077V144ZM137.819 144H138.819V130.633H137.819H136.819V144H137.819ZM137.819 130.633V129.633H126.53V130.633V131.633H137.819V130.633ZM126.53 130.633H125.53V144H126.53H127.53V130.633H126.53ZM126.53 144V143H117.272V144V145H126.53V144ZM117.272 144H118.272V110.7H117.272H116.272V144H117.272ZM117.272 110.7V111.7H126.53V110.7V109.7H117.272V110.7ZM126.53 110.7H125.53V123.217H126.53H127.53V110.7H126.53ZM126.53 123.217V124.217H137.819V123.217V122.217H126.53V123.217ZM137.819 123.217H138.819V110.7H137.819H136.819V123.217H137.819ZM137.819 110.7V111.7H147.077V110.7V109.7H137.819V110.7ZM164.439 141.591L163.84 142.392L163.847 142.397L164.439 141.591ZM160.424 133.656V132.656H159.367L159.425 133.711L160.424 133.656ZM170.296 133.656L171.292 133.575L171.218 132.656H170.296V133.656ZM171.335 136.206L170.668 136.952L171.335 136.206ZM175.728 136.395L176.335 137.19L176.342 137.185L175.728 136.395ZM175.208 132.333L175.714 131.47L175.208 132.333ZM170.768 130.538L170.452 131.487L170.461 131.49L170.768 130.538ZM165.478 128.46L165.014 129.346L165.026 129.352L165.039 129.358L165.478 128.46ZM161.982 125.484L161.178 126.078L161.186 126.089L161.194 126.099L161.982 125.484ZM162.124 114.856L162.94 115.434L162.946 115.426L162.124 114.856ZM166.564 111.361L166.18 110.438L166.564 111.361ZM182.246 112.92L181.624 113.703L181.63 113.707L181.636 113.712L182.246 112.92ZM185.978 120.524V121.524H187.027L186.976 120.476L185.978 120.524ZM175.917 120.524L174.917 120.556L174.947 121.524H175.917V120.524ZM174.972 118.257L174.308 119.005L174.318 119.014L174.328 119.022L174.972 118.257ZM171.051 118.116L171.732 118.848L171.051 118.116ZM171.099 121.516L170.392 122.224L170.415 122.247L170.44 122.269L171.099 121.516ZM172.941 122.697L172.509 123.599L172.526 123.607L172.542 123.614L172.941 122.697ZM176.153 123.925L175.818 124.868L175.828 124.871L176.153 123.925ZM181.349 126.098L180.877 126.98L180.889 126.986L180.901 126.993L181.349 126.098ZM184.891 129.074L184.093 129.677L184.102 129.688L184.11 129.699L184.891 129.074ZM184.891 139.229L184.049 138.69L184.045 138.696L184.041 138.702L184.891 139.229ZM180.593 142.961L180.158 142.06L180.152 142.063L180.593 142.961ZM173.98 144.331V143.331C170.265 143.331 167.307 142.456 165.03 140.785L164.439 141.591L163.847 142.397C166.546 144.379 169.949 145.331 173.98 145.331V144.331ZM164.439 141.591L165.037 140.79C162.814 139.13 161.597 136.773 161.422 133.601L160.424 133.656L159.425 133.711C159.628 137.403 161.088 140.337 163.84 142.392L164.439 141.591ZM160.424 133.656V134.656H170.296V133.656V132.656H160.424V133.656ZM170.296 133.656L169.299 133.736C169.405 135.042 169.807 136.181 170.668 136.952L171.335 136.206L172.002 135.461C171.666 135.161 171.376 134.6 171.292 133.575L170.296 133.656ZM171.335 136.206L170.668 136.952C171.481 137.679 172.505 138.009 173.649 138.009V137.009V136.009C172.905 136.009 172.385 135.804 172.002 135.461L171.335 136.206ZM173.649 137.009V138.009C174.661 138.009 175.584 137.764 176.335 137.19L175.728 136.395L175.12 135.601C174.801 135.845 174.338 136.009 173.649 136.009V137.009ZM175.728 136.395L176.342 137.185C177.166 136.543 177.578 135.646 177.578 134.6H176.578H175.578C175.578 135.066 175.422 135.366 175.114 135.606L175.728 136.395ZM176.578 134.6H177.578C177.578 133.234 176.902 132.167 175.714 131.47L175.208 132.333L174.702 133.196C175.341 133.57 175.578 134.014 175.578 134.6H176.578ZM175.208 132.333L175.714 131.47C174.702 130.877 173.136 130.252 171.075 129.587L170.768 130.538L170.461 131.49C172.494 132.147 173.888 132.718 174.702 133.196L175.208 132.333ZM170.768 130.538L171.084 129.589C168.934 128.873 167.216 128.196 165.917 127.561L165.478 128.46L165.039 129.358C166.447 130.046 168.256 130.755 170.452 131.487L170.768 130.538ZM165.478 128.46L165.942 127.574C164.757 126.954 163.699 126.059 162.771 124.869L161.982 125.484L161.194 126.099C162.281 127.492 163.553 128.581 165.014 129.346L165.478 128.46ZM161.982 125.484L162.787 124.89C161.97 123.783 161.518 122.292 161.518 120.336H160.518H159.518C159.518 122.598 160.043 124.54 161.178 126.078L161.982 125.484ZM160.518 120.336H161.518C161.518 118.368 162.007 116.752 162.94 115.434L162.124 114.856L161.308 114.278C160.1 115.984 159.518 118.021 159.518 120.336H160.518ZM162.124 114.856L162.946 115.426C163.898 114.054 165.219 113.005 166.949 112.284L166.564 111.361L166.18 110.438C164.13 111.292 162.492 112.572 161.303 114.286L162.124 114.856ZM166.564 111.361L166.949 112.284C168.697 111.555 170.705 111.18 172.988 111.18V110.18V109.18C170.485 109.18 168.21 109.592 166.18 110.438L166.564 111.361ZM172.988 110.18V111.18C176.708 111.18 179.551 112.056 181.624 113.703L182.246 112.92L182.868 112.137C180.343 110.131 177.015 109.18 172.988 109.18V110.18ZM182.246 112.92L181.636 113.712C183.705 115.306 184.833 117.553 184.979 120.573L185.978 120.524L186.976 120.476C186.807 116.946 185.447 114.123 182.856 112.128L182.246 112.92ZM185.978 120.524V119.524H175.917V120.524V121.524H185.978V120.524ZM175.917 120.524L176.916 120.493C176.878 119.289 176.49 118.229 175.616 117.492L174.972 118.257L174.328 119.022C174.65 119.293 174.892 119.745 174.917 120.556L175.917 120.524ZM174.972 118.257L175.636 117.51C174.851 116.811 173.857 116.501 172.752 116.501V117.501V118.501C173.473 118.501 173.96 118.695 174.308 119.005L174.972 118.257ZM172.752 117.501V116.501C171.848 116.501 171.025 116.776 170.371 117.383L171.051 118.116L171.732 118.848C171.96 118.637 172.271 118.501 172.752 118.501V117.501ZM171.051 118.116L170.371 117.383C169.677 118.027 169.39 118.905 169.39 119.863H170.39H171.39C171.39 119.309 171.545 119.022 171.732 118.848L171.051 118.116ZM170.39 119.863H169.39C169.39 120.776 169.744 121.576 170.392 122.224L171.099 121.516L171.806 120.809C171.508 120.512 171.39 120.21 171.39 119.863H170.39ZM171.099 121.516L170.44 122.269C171.025 122.78 171.719 123.221 172.509 123.599L172.941 122.697L173.372 121.795C172.714 121.48 172.18 121.134 171.757 120.764L171.099 121.516ZM172.941 122.697L172.542 123.614C173.298 123.943 174.395 124.362 175.818 124.868L176.153 123.925L176.488 122.983C175.077 122.481 174.032 122.081 173.34 121.78L172.941 122.697ZM176.153 123.925L175.828 124.871C177.908 125.585 179.586 126.289 180.877 126.98L181.349 126.098L181.82 125.216C180.403 124.458 178.617 123.714 176.477 122.98L176.153 123.925ZM181.349 126.098L180.901 126.993C182.143 127.613 183.206 128.503 184.093 129.677L184.891 129.074L185.689 128.471C184.624 127.063 183.325 125.968 181.796 125.204L181.349 126.098ZM184.891 129.074L184.11 129.699C184.948 130.746 185.403 132.117 185.403 133.892H186.403H187.403C187.403 131.762 186.85 129.921 185.672 128.449L184.891 129.074ZM186.403 133.892H185.403C185.403 135.697 184.947 137.287 184.049 138.69L184.891 139.229L185.733 139.768C186.85 138.023 187.403 136.054 187.403 133.892H186.403ZM184.891 139.229L184.041 138.702C183.178 140.095 181.899 141.219 180.158 142.06L180.593 142.961L181.028 143.861C183.065 142.877 184.652 141.513 185.741 139.756L184.891 139.229ZM180.593 142.961L180.152 142.063C178.459 142.895 176.412 143.331 173.98 143.331V144.331V145.331C176.649 145.331 179.011 144.853 181.034 143.858L180.593 142.961ZM211.773 138.568L212.723 138.254L212.496 137.568H211.773V138.568ZM199.964 138.568V137.568H199.242L199.015 138.254L199.964 138.568ZM198.17 144V145H198.892L199.119 144.314L198.17 144ZM188.439 144L187.5 143.658L187.01 145H188.439V144ZM200.579 110.7V109.7H199.879L199.639 110.357L200.579 110.7ZM211.253 110.7L212.193 110.358L211.954 109.7H211.253V110.7ZM223.346 144V145H224.773L224.285 143.659L223.346 144ZM213.568 144L212.618 144.314L212.845 145H213.568V144ZM209.459 131.483V132.483H210.846L210.407 131.167L209.459 131.483ZM205.869 120.713L206.817 120.397L205.862 117.532L204.919 120.401L205.869 120.713ZM202.326 131.483L201.376 131.17L200.945 132.483H202.326V131.483ZM211.773 138.568V137.568H199.964V138.568V139.568H211.773V138.568ZM199.964 138.568L199.015 138.254L197.22 143.686L198.17 144L199.119 144.314L200.914 138.882L199.964 138.568ZM198.17 144V143H188.439V144V145H198.17V144ZM188.439 144L189.379 144.342L201.518 111.042L200.579 110.7L199.639 110.357L187.5 143.658L188.439 144ZM200.579 110.7V111.7H211.253V110.7V109.7H200.579V110.7ZM211.253 110.7L210.314 111.041L222.406 144.341L223.346 144L224.285 143.659L212.193 110.358L211.253 110.7ZM223.346 144V143H213.568V144V145H223.346V144ZM213.568 144L214.517 143.686L212.723 138.254L211.773 138.568L210.824 138.882L212.618 144.314L213.568 144ZM209.459 131.483L210.407 131.167L206.817 120.397L205.869 120.713L204.92 121.03L208.51 131.799L209.459 131.483ZM205.869 120.713L204.919 120.401L201.376 131.17L202.326 131.483L203.276 131.795L206.819 121.026L205.869 120.713ZM202.326 131.483V132.483H209.459V131.483V130.483H202.326V131.483ZM235.621 136.915H234.621V137.915H235.621V136.915ZM245.965 136.915H246.965V135.915H245.965V136.915ZM245.965 144V145H246.965V144H245.965ZM226.363 144H225.363V145H226.363V144ZM226.363 110.7V109.7H225.363V110.7H226.363ZM235.621 110.7H236.621V109.7H235.621V110.7ZM235.621 136.915V137.915H245.965V136.915V135.915H235.621V136.915ZM245.965 136.915H244.965V144H245.965H246.965V136.915H245.965ZM245.965 144V143H226.363V144V145H245.965V144ZM226.363 144H227.363V110.7H226.363H225.363V144H226.363ZM226.363 110.7V111.7H235.621V110.7V109.7H226.363V110.7ZM235.621 110.7H234.621V136.915H235.621H236.621V110.7H235.621ZM258.823 118.116V117.116H257.823V118.116H258.823ZM258.823 123.547H257.823V124.547H258.823V123.547ZM269.451 123.547H270.451V122.547H269.451V123.547ZM269.451 130.585V131.585H270.451V130.585H269.451ZM258.823 130.585V129.585H257.823V130.585H258.823ZM258.823 136.584H257.823V137.584H258.823V136.584ZM270.868 136.584H271.868V135.584H270.868V136.584ZM270.868 144V145H271.868V144H270.868ZM249.565 144H248.565V145H249.565V144ZM249.565 110.7V109.7H248.565V110.7H249.565ZM270.868 110.7H271.868V109.7H270.868V110.7ZM270.868 118.116V119.116H271.868V118.116H270.868ZM258.823 118.116H257.823V123.547H258.823H259.823V118.116H258.823ZM258.823 123.547V124.547H269.451V123.547V122.547H258.823V123.547ZM269.451 123.547H268.451V130.585H269.451H270.451V123.547H269.451ZM269.451 130.585V129.585H258.823V130.585V131.585H269.451V130.585ZM258.823 130.585H257.823V136.584H258.823H259.823V130.585H258.823ZM258.823 136.584V137.584H270.868V136.584V135.584H258.823V136.584ZM270.868 136.584H269.868V144H270.868H271.868V136.584H270.868ZM270.868 144V143H249.565V144V145H270.868V144ZM249.565 144H250.565V110.7H249.565H248.565V144H249.565ZM249.565 110.7V111.7H270.868V110.7V109.7H249.565V110.7ZM270.868 110.7H269.868V118.116H270.868H271.868V110.7H270.868ZM270.868 118.116V117.116H258.823V118.116V119.116H270.868V118.116Z" fill="#E83F25" mask="url(#path-4-outside-2_98_136)"/>
<mask id="path-6-outside-3_98_136" maskUnits="userSpaceOnUse" x="1" y="155" width="271" height="37" fill="black">
<rect fill="white" x="1" y="155" width="271" height="37"/>
<path d="M25.2232 156.7V164.068H11.9031V169.925H21.7278V176.963H11.9031V190H2.64513V156.7H25.2232ZM38.3802 182.915H48.7245V190H29.1223V156.7H38.3802V182.915ZM73.3909 184.568H61.5823L59.7874 190H50.0571L62.1963 156.7H72.8713L84.9633 190H75.1858L73.3909 184.568ZM71.0764 177.483L67.4866 166.713L63.944 177.483H71.0764ZM100.545 190.331C96.6719 190.331 93.4915 189.417 91.0038 187.591C88.5161 185.733 87.1778 183.088 86.9889 179.656H96.8609C96.9553 180.821 97.3017 181.671 97.9 182.206C98.4983 182.742 99.2698 183.009 100.215 183.009C101.065 183.009 101.758 182.805 102.293 182.395C102.86 181.954 103.143 181.356 103.143 180.6C103.143 179.624 102.686 178.868 101.773 178.333C100.86 177.798 99.38 177.199 97.3332 176.538C95.1604 175.814 93.397 175.121 92.043 174.46C90.7204 173.767 89.5553 172.775 88.5476 171.484C87.5714 170.162 87.0833 168.445 87.0833 166.336C87.0833 164.194 87.6187 162.368 88.6893 160.856C89.76 159.313 91.24 158.148 93.1294 157.361C95.0187 156.574 97.16 156.18 99.5532 156.18C103.426 156.18 106.512 157.093 108.811 158.92C111.141 160.715 112.385 163.25 112.543 166.524H102.482C102.45 165.517 102.135 164.761 101.537 164.257C100.97 163.753 100.23 163.501 99.3171 163.501C98.6243 163.501 98.0575 163.706 97.6166 164.116C97.1758 164.525 96.9553 165.107 96.9553 165.863C96.9553 166.493 97.1915 167.044 97.6639 167.516C98.1677 167.957 98.7817 168.351 99.506 168.697C100.23 169.012 101.301 169.422 102.718 169.925C104.828 170.65 106.56 171.374 107.914 172.098C109.299 172.791 110.48 173.783 111.456 175.074C112.464 176.333 112.968 177.939 112.968 179.892C112.968 181.876 112.464 183.655 111.456 185.229C110.48 186.804 109.047 188.048 107.158 188.961C105.3 189.874 103.096 190.331 100.545 190.331ZM147.077 156.7V190H137.819V176.633H126.53V190H117.272V156.7H126.53V169.217H137.819V156.7H147.077ZM173.98 190.331C170.107 190.331 166.926 189.417 164.439 187.591C161.951 185.733 160.613 183.088 160.424 179.656H170.296C170.39 180.821 170.737 181.671 171.335 182.206C171.933 182.742 172.705 183.009 173.649 183.009C174.5 183.009 175.192 182.805 175.728 182.395C176.294 181.954 176.578 181.356 176.578 180.6C176.578 179.624 176.121 178.868 175.208 178.333C174.295 177.798 172.815 177.199 170.768 176.538C168.595 175.814 166.832 175.121 165.478 174.46C164.155 173.767 162.99 172.775 161.982 171.484C161.006 170.162 160.518 168.445 160.518 166.336C160.518 164.194 161.053 162.368 162.124 160.856C163.195 159.313 164.675 158.148 166.564 157.361C168.454 156.574 170.595 156.18 172.988 156.18C176.861 156.18 179.947 157.093 182.246 158.92C184.576 160.715 185.82 163.25 185.978 166.524H175.917C175.885 165.517 175.57 164.761 174.972 164.257C174.405 163.753 173.665 163.501 172.752 163.501C172.059 163.501 171.492 163.706 171.051 164.116C170.611 164.525 170.39 165.107 170.39 165.863C170.39 166.493 170.626 167.044 171.099 167.516C171.603 167.957 172.217 168.351 172.941 168.697C173.665 169.012 174.736 169.422 176.153 169.925C178.263 170.65 179.994 171.374 181.349 172.098C182.734 172.791 183.915 173.783 184.891 175.074C185.899 176.333 186.403 177.939 186.403 179.892C186.403 181.876 185.899 183.655 184.891 185.229C183.915 186.804 182.482 188.048 180.593 188.961C178.735 189.874 176.531 190.331 173.98 190.331ZM211.773 184.568H199.964L198.17 190H188.439L200.579 156.7H211.253L223.346 190H213.568L211.773 184.568ZM209.459 177.483L205.869 166.713L202.326 177.483H209.459ZM235.621 182.915H245.965V190H226.363V156.7H235.621V182.915ZM258.823 164.116V169.547H269.451V176.585H258.823V182.584H270.868V190H249.565V156.7H270.868V164.116H258.823Z"/>
</mask>
<path d="M25.2232 156.7H26.2232V155.7H25.2232V156.7ZM25.2232 164.068V165.068H26.2232V164.068H25.2232ZM11.9031 164.068V163.068H10.9031V164.068H11.9031ZM11.9031 169.925H10.9031V170.925H11.9031V169.925ZM21.7278 169.925H22.7278V168.925H21.7278V169.925ZM21.7278 176.963V177.963H22.7278V176.963H21.7278ZM11.9031 176.963V175.963H10.9031V176.963H11.9031ZM11.9031 190V191H12.9031V190H11.9031ZM2.64513 190H1.64513V191H2.64513V190ZM2.64513 156.7V155.7H1.64513V156.7H2.64513ZM25.2232 156.7H24.2232V164.068H25.2232H26.2232V156.7H25.2232ZM25.2232 164.068V163.068H11.9031V164.068V165.068H25.2232V164.068ZM11.9031 164.068H10.9031V169.925H11.9031H12.9031V164.068H11.9031ZM11.9031 169.925V170.925H21.7278V169.925V168.925H11.9031V169.925ZM21.7278 169.925H20.7278V176.963H21.7278H22.7278V169.925H21.7278ZM21.7278 176.963V175.963H11.9031V176.963V177.963H21.7278V176.963ZM11.9031 176.963H10.9031V190H11.9031H12.9031V176.963H11.9031ZM11.9031 190V189H2.64513V190V191H11.9031V190ZM2.64513 190H3.64513V156.7H2.64513H1.64513V190H2.64513ZM2.64513 156.7V157.7H25.2232V156.7V155.7H2.64513V156.7ZM38.3802 182.915H37.3802V183.915H38.3802V182.915ZM48.7245 182.915H49.7245V181.915H48.7245V182.915ZM48.7245 190V191H49.7245V190H48.7245ZM29.1222 190H28.1222V191H29.1222V190ZM29.1222 156.7V155.7H28.1222V156.7H29.1222ZM38.3802 156.7H39.3802V155.7H38.3802V156.7ZM38.3802 182.915V183.915H48.7245V182.915V181.915H38.3802V182.915ZM48.7245 182.915H47.7245V190H48.7245H49.7245V182.915H48.7245ZM48.7245 190V189H29.1222V190V191H48.7245V190ZM29.1222 190H30.1222V156.7H29.1222H28.1222V190H29.1222ZM29.1222 156.7V157.7H38.3802V156.7V155.7H29.1222V156.7ZM38.3802 156.7H37.3802V182.915H38.3802H39.3802V156.7H38.3802ZM73.3909 184.568L74.3404 184.254L74.1136 183.568H73.3909V184.568ZM61.5823 184.568V183.568H60.8595L60.6328 184.254L61.5823 184.568ZM59.7874 190V191H60.5101L60.7369 190.314L59.7874 190ZM50.0571 190L49.1176 189.658L48.6282 191H50.0571V190ZM62.1963 156.7V155.7H61.4965L61.2568 156.357L62.1963 156.7ZM72.8713 156.7L73.8113 156.358L73.5721 155.7H72.8713V156.7ZM84.9633 190V191H86.3903L85.9033 189.659L84.9633 190ZM75.1858 190L74.2363 190.314L74.4631 191H75.1858V190ZM71.0764 177.483V178.483H72.4638L72.0251 177.167L71.0764 177.483ZM67.4866 166.713L68.4353 166.397L67.4803 163.532L66.5367 166.401L67.4866 166.713ZM63.944 177.483L62.9941 177.17L62.5623 178.483H63.944V177.483ZM73.3909 184.568V183.568H61.5823V184.568V185.568H73.3909V184.568ZM61.5823 184.568L60.6328 184.254L58.8379 189.686L59.7874 190L60.7369 190.314L62.5318 184.882L61.5823 184.568ZM59.7874 190V189H50.0571V190V191H59.7874V190ZM50.0571 190L50.9966 190.342L63.1358 157.042L62.1963 156.7L61.2568 156.357L49.1176 189.658L50.0571 190ZM62.1963 156.7V157.7H72.8713V156.7V155.7H62.1963V156.7ZM72.8713 156.7L71.9314 157.041L84.0234 190.341L84.9633 190L85.9033 189.659L73.8113 156.358L72.8713 156.7ZM84.9633 190V189H75.1858V190V191H84.9633V190ZM75.1858 190L76.1353 189.686L74.3404 184.254L73.3909 184.568L72.4414 184.882L74.2363 190.314L75.1858 190ZM71.0764 177.483L72.0251 177.167L68.4353 166.397L67.4866 166.713L66.5379 167.03L70.1277 177.799L71.0764 177.483ZM67.4866 166.713L66.5367 166.401L62.9941 177.17L63.944 177.483L64.8939 177.795L68.4365 167.026L67.4866 166.713ZM63.944 177.483V178.483H71.0764V177.483V176.483H63.944V177.483ZM91.0038 187.591L90.4054 188.392L90.412 188.397L91.0038 187.591ZM86.9889 179.656V178.656H85.9323L85.9904 179.711L86.9889 179.656ZM96.8609 179.656L97.8576 179.575L97.7831 178.656H96.8609V179.656ZM97.9 182.206L97.2332 182.952L97.9 182.206ZM102.293 182.395L102.9 183.19L102.907 183.185L102.293 182.395ZM101.773 178.333L102.279 177.47L101.773 178.333ZM97.3332 176.538L97.017 177.487L97.0258 177.49L97.3332 176.538ZM92.043 174.46L91.579 175.346L91.5915 175.352L91.6041 175.358L92.043 174.46ZM88.5476 171.484L87.743 172.078L87.751 172.089L87.7593 172.099L88.5476 171.484ZM88.6893 160.856L89.5054 161.434L89.5109 161.426L88.6893 160.856ZM93.1294 157.361L92.7447 156.438H92.7447L93.1294 157.361ZM108.811 158.92L108.189 159.703L108.195 159.707L108.201 159.712L108.811 158.92ZM112.543 166.524V167.524H113.592L113.542 166.476L112.543 166.524ZM102.482 166.524L101.482 166.556L101.513 167.524H102.482V166.524ZM101.537 164.257L100.873 165.005L100.883 165.014L100.893 165.022L101.537 164.257ZM97.6166 164.116L98.2971 164.848L97.6166 164.116ZM97.6639 167.516L96.9568 168.224L96.9803 168.247L97.0054 168.269L97.6639 167.516ZM99.506 168.697L99.0745 169.599L99.0908 169.607L99.1073 169.614L99.506 168.697ZM102.718 169.925L102.383 170.868L102.393 170.871L102.718 169.925ZM107.914 172.098L107.442 172.98L107.454 172.986L107.467 172.993L107.914 172.098ZM111.456 175.074L110.659 175.677L110.667 175.688L110.675 175.699L111.456 175.074ZM111.456 185.229L110.614 184.69L110.61 184.696L110.606 184.702L111.456 185.229ZM107.158 188.961L106.723 188.06L106.717 188.063L107.158 188.961ZM100.545 190.331V189.331C96.8299 189.331 93.8722 188.456 91.5956 186.785L91.0038 187.591L90.412 188.397C93.1108 190.379 96.514 191.331 100.545 191.331V190.331ZM91.0038 187.591L91.6022 186.79C89.3791 185.13 88.162 182.773 87.9874 179.601L86.9889 179.656L85.9904 179.711C86.1936 183.403 87.6531 186.337 90.4054 188.392L91.0038 187.591ZM86.9889 179.656V180.656H96.8609V179.656V178.656H86.9889V179.656ZM96.8609 179.656L95.8642 179.736C95.97 181.042 96.372 182.181 97.2332 182.952L97.9 182.206L98.5668 181.461C98.2314 181.161 97.9407 180.6 97.8576 179.575L96.8609 179.656ZM97.9 182.206L97.2332 182.952C98.0465 183.679 99.0698 184.009 100.215 184.009V183.009V182.009C99.4698 182.009 98.9501 181.804 98.5668 181.461L97.9 182.206ZM100.215 183.009V184.009C101.226 184.009 102.149 183.764 102.9 183.19L102.293 182.395L101.685 181.601C101.366 181.845 100.903 182.009 100.215 182.009V183.009ZM102.293 182.395L102.907 183.185C103.732 182.543 104.143 181.646 104.143 180.6H103.143H102.143C102.143 181.066 101.988 181.366 101.679 181.606L102.293 182.395ZM103.143 180.6H104.143C104.143 179.234 103.467 178.167 102.279 177.47L101.773 178.333L101.268 179.196C101.906 179.57 102.143 180.014 102.143 180.6H103.143ZM101.773 178.333L102.279 177.47C101.267 176.877 99.7011 176.252 97.6406 175.587L97.3332 176.538L97.0258 177.49C99.059 178.147 100.453 178.718 101.268 179.196L101.773 178.333ZM97.3332 176.538L97.6494 175.589C95.4995 174.873 93.7814 174.196 92.4818 173.561L92.043 174.46L91.6041 175.358C93.0126 176.046 94.8214 176.755 97.017 177.487L97.3332 176.538ZM92.043 174.46L92.507 173.574C91.3223 172.954 90.2646 172.059 89.3359 170.869L88.5476 171.484L87.7593 172.099C88.846 173.492 90.1185 174.581 91.579 175.346L92.043 174.46ZM88.5476 171.484L89.3522 170.89C88.5349 169.783 88.0833 168.292 88.0833 166.336H87.0833H86.0833C86.0833 168.598 86.608 170.54 87.743 172.078L88.5476 171.484ZM87.0833 166.336H88.0833C88.0833 164.368 88.5723 162.752 89.5053 161.434L88.6893 160.856L87.8733 160.278C86.665 161.984 86.0833 164.021 86.0833 166.336H87.0833ZM88.6893 160.856L89.5109 161.426C90.4629 160.054 91.7845 159.005 93.514 158.284L93.1294 157.361L92.7447 156.438C90.6954 157.292 89.0571 158.572 87.8677 160.286L88.6893 160.856ZM93.1294 157.361L93.514 158.284C95.2627 157.555 97.27 157.18 99.5532 157.18V156.18V155.18C97.05 155.18 94.7748 155.592 92.7447 156.438L93.1294 157.361ZM99.5532 156.18V157.18C103.273 157.18 106.117 158.056 108.189 159.703L108.811 158.92L109.433 158.137C106.908 156.131 103.58 155.18 99.5532 155.18V156.18ZM108.811 158.92L108.201 159.712C110.27 161.306 111.399 163.553 111.544 166.573L112.543 166.524L113.542 166.476C113.372 162.946 112.012 160.123 109.421 158.128L108.811 158.92ZM112.543 166.524V165.524H102.482V166.524V167.524H112.543V166.524ZM102.482 166.524L103.481 166.493C103.444 165.289 103.056 164.229 102.181 163.492L101.537 164.257L100.893 165.022C101.215 165.293 101.457 165.745 101.482 166.556L102.482 166.524ZM101.537 164.257L102.201 163.51C101.416 162.811 100.423 162.501 99.3171 162.501V163.501V164.501C100.038 164.501 100.525 164.695 100.873 165.005L101.537 164.257ZM99.3171 163.501V162.501C98.4129 162.501 97.59 162.776 96.9362 163.383L97.6166 164.116L98.2971 164.848C98.525 164.637 98.8357 164.501 99.3171 164.501V163.501ZM97.6166 164.116L96.9362 163.383C96.2418 164.027 95.9553 164.905 95.9553 165.863H96.9553H97.9553C97.9553 165.309 98.1097 165.022 98.2971 164.848L97.6166 164.116ZM96.9553 165.863H95.9553C95.9553 166.776 96.3095 167.576 96.9568 168.224L97.6639 167.516L98.371 166.809C98.0735 166.512 97.9553 166.21 97.9553 165.863H96.9553ZM97.6639 167.516L97.0054 168.269C97.5897 168.78 98.2839 169.221 99.0745 169.599L99.506 168.697L99.9375 167.795C99.2796 167.48 98.7457 167.134 98.3224 166.764L97.6639 167.516ZM99.506 168.697L99.1073 169.614C99.8635 169.943 100.96 170.362 102.383 170.868L102.718 169.925L103.053 168.983C101.642 168.481 100.597 168.081 99.9047 167.78L99.506 168.697ZM102.718 169.925L102.393 170.871C104.473 171.585 106.151 172.289 107.442 172.98L107.914 172.098L108.385 171.216C106.968 170.458 105.183 169.714 103.043 168.98L102.718 169.925ZM107.914 172.098L107.467 172.993C108.708 173.613 109.771 174.503 110.659 175.677L111.456 175.074L112.254 174.471C111.189 173.063 109.89 171.968 108.361 171.204L107.914 172.098ZM111.456 175.074L110.675 175.699C111.513 176.746 111.968 178.117 111.968 179.892H112.968H113.968C113.968 177.762 113.415 175.921 112.237 174.449L111.456 175.074ZM112.968 179.892H111.968C111.968 181.697 111.512 183.287 110.614 184.69L111.456 185.229L112.299 185.768C113.416 184.023 113.968 182.054 113.968 179.892H112.968ZM111.456 185.229L110.606 184.702C109.743 186.095 108.465 187.219 106.723 188.06L107.158 188.961L107.593 189.861C109.63 188.877 111.217 187.513 112.306 185.756L111.456 185.229ZM107.158 188.961L106.717 188.063C105.024 188.895 102.978 189.331 100.545 189.331V190.331V191.331C103.214 191.331 105.576 190.853 107.599 189.858L107.158 188.961ZM147.077 156.7H148.077V155.7H147.077V156.7ZM147.077 190V191H148.077V190H147.077ZM137.819 190H136.819V191H137.819V190ZM137.819 176.633H138.819V175.633H137.819V176.633ZM126.53 176.633V175.633H125.53V176.633H126.53ZM126.53 190V191H127.53V190H126.53ZM117.272 190H116.272V191H117.272V190ZM117.272 156.7V155.7H116.272V156.7H117.272ZM126.53 156.7H127.53V155.7H126.53V156.7ZM126.53 169.217H125.53V170.217H126.53V169.217ZM137.819 169.217V170.217H138.819V169.217H137.819ZM137.819 156.7V155.7H136.819V156.7H137.819ZM147.077 156.7H146.077V190H147.077H148.077V156.7H147.077ZM147.077 190V189H137.819V190V191H147.077V190ZM137.819 190H138.819V176.633H137.819H136.819V190H137.819ZM137.819 176.633V175.633H126.53V176.633V177.633H137.819V176.633ZM126.53 176.633H125.53V190H126.53H127.53V176.633H126.53ZM126.53 190V189H117.272V190V191H126.53V190ZM117.272 190H118.272V156.7H117.272H116.272V190H117.272ZM117.272 156.7V157.7H126.53V156.7V155.7H117.272V156.7ZM126.53 156.7H125.53V169.217H126.53H127.53V156.7H126.53ZM126.53 169.217V170.217H137.819V169.217V168.217H126.53V169.217ZM137.819 169.217H138.819V156.7H137.819H136.819V169.217H137.819ZM137.819 156.7V157.7H147.077V156.7V155.7H137.819V156.7ZM164.439 187.591L163.84 188.392L163.847 188.397L164.439 187.591ZM160.424 179.656V178.656H159.367L159.425 179.711L160.424 179.656ZM170.296 179.656L171.292 179.575L171.218 178.656H170.296V179.656ZM171.335 182.206L170.668 182.952L171.335 182.206ZM175.728 182.395L176.335 183.19L176.342 183.185L175.728 182.395ZM175.208 178.333L175.714 177.47L175.208 178.333ZM170.768 176.538L170.452 177.487L170.461 177.49L170.768 176.538ZM165.478 174.46L165.014 175.346L165.026 175.352L165.039 175.358L165.478 174.46ZM161.982 171.484L161.178 172.078L161.186 172.089L161.194 172.099L161.982 171.484ZM162.124 160.856L162.94 161.434L162.946 161.426L162.124 160.856ZM166.564 157.361L166.18 156.438L166.564 157.361ZM182.246 158.92L181.624 159.703L181.63 159.707L181.636 159.712L182.246 158.92ZM185.978 166.524V167.524H187.027L186.976 166.476L185.978 166.524ZM175.917 166.524L174.917 166.556L174.947 167.524H175.917V166.524ZM174.972 164.257L174.308 165.005L174.318 165.014L174.328 165.022L174.972 164.257ZM171.051 164.116L171.732 164.848L171.051 164.116ZM171.099 167.516L170.392 168.224L170.415 168.247L170.44 168.269L171.099 167.516ZM172.941 168.697L172.509 169.599L172.526 169.607L172.542 169.614L172.941 168.697ZM176.153 169.925L175.818 170.868L175.828 170.871L176.153 169.925ZM181.349 172.098L180.877 172.98L180.889 172.986L180.901 172.993L181.349 172.098ZM184.891 175.074L184.093 175.677L184.102 175.688L184.11 175.699L184.891 175.074ZM184.891 185.229L184.049 184.69L184.045 184.696L184.041 184.702L184.891 185.229ZM180.593 188.961L180.158 188.06L180.152 188.063L180.593 188.961ZM173.98 190.331V189.331C170.265 189.331 167.307 188.456 165.03 186.785L164.439 187.591L163.847 188.397C166.546 190.379 169.949 191.331 173.98 191.331V190.331ZM164.439 187.591L165.037 186.79C162.814 185.13 161.597 182.773 161.422 179.601L160.424 179.656L159.425 179.711C159.628 183.403 161.088 186.337 163.84 188.392L164.439 187.591ZM160.424 179.656V180.656H170.296V179.656V178.656H160.424V179.656ZM170.296 179.656L169.299 179.736C169.405 181.042 169.807 182.181 170.668 182.952L171.335 182.206L172.002 181.461C171.666 181.161 171.376 180.6 171.292 179.575L170.296 179.656ZM171.335 182.206L170.668 182.952C171.481 183.679 172.505 184.009 173.649 184.009V183.009V182.009C172.905 182.009 172.385 181.804 172.002 181.461L171.335 182.206ZM173.649 183.009V184.009C174.661 184.009 175.584 183.764 176.335 183.19L175.728 182.395L175.12 181.601C174.801 181.845 174.338 182.009 173.649 182.009V183.009ZM175.728 182.395L176.342 183.185C177.166 182.543 177.578 181.646 177.578 180.6H176.578H175.578C175.578 181.066 175.422 181.366 175.114 181.606L175.728 182.395ZM176.578 180.6H177.578C177.578 179.234 176.902 178.167 175.714 177.47L175.208 178.333L174.702 179.196C175.341 179.57 175.578 180.014 175.578 180.6H176.578ZM175.208 178.333L175.714 177.47C174.702 176.877 173.136 176.252 171.075 175.587L170.768 176.538L170.461 177.49C172.494 178.147 173.888 178.718 174.702 179.196L175.208 178.333ZM170.768 176.538L171.084 175.589C168.934 174.873 167.216 174.196 165.917 173.561L165.478 174.46L165.039 175.358C166.447 176.046 168.256 176.755 170.452 177.487L170.768 176.538ZM165.478 174.46L165.942 173.574C164.757 172.954 163.699 172.059 162.771 170.869L161.982 171.484L161.194 172.099C162.281 173.492 163.553 174.581 165.014 175.346L165.478 174.46ZM161.982 171.484L162.787 170.89C161.97 169.783 161.518 168.292 161.518 166.336H160.518H159.518C159.518 168.598 160.043 170.54 161.178 172.078L161.982 171.484ZM160.518 166.336H161.518C161.518 164.368 162.007 162.752 162.94 161.434L162.124 160.856L161.308 160.278C160.1 161.984 159.518 164.021 159.518 166.336H160.518ZM162.124 160.856L162.946 161.426C163.898 160.054 165.219 159.005 166.949 158.284L166.564 157.361L166.18 156.438C164.13 157.292 162.492 158.572 161.303 160.286L162.124 160.856ZM166.564 157.361L166.949 158.284C168.697 157.555 170.705 157.18 172.988 157.18V156.18V155.18C170.485 155.18 168.21 155.592 166.18 156.438L166.564 157.361ZM172.988 156.18V157.18C176.708 157.18 179.551 158.056 181.624 159.703L182.246 158.92L182.868 158.137C180.343 156.131 177.015 155.18 172.988 155.18V156.18ZM182.246 158.92L181.636 159.712C183.705 161.306 184.833 163.553 184.979 166.573L185.978 166.524L186.976 166.476C186.807 162.946 185.447 160.123 182.856 158.128L182.246 158.92ZM185.978 166.524V165.524H175.917V166.524V167.524H185.978V166.524ZM175.917 166.524L176.916 166.493C176.878 165.289 176.49 164.229 175.616 163.492L174.972 164.257L174.328 165.022C174.65 165.293 174.892 165.745 174.917 166.556L175.917 166.524ZM174.972 164.257L175.636 163.51C174.851 162.811 173.857 162.501 172.752 162.501V163.501V164.501C173.473 164.501 173.96 164.695 174.308 165.005L174.972 164.257ZM172.752 163.501V162.501C171.848 162.501 171.025 162.776 170.371 163.383L171.051 164.116L171.732 164.848C171.96 164.637 172.271 164.501 172.752 164.501V163.501ZM171.051 164.116L170.371 163.383C169.677 164.027 169.39 164.905 169.39 165.863H170.39H171.39C171.39 165.309 171.545 165.022 171.732 164.848L171.051 164.116ZM170.39 165.863H169.39C169.39 166.776 169.744 167.576 170.392 168.224L171.099 167.516L171.806 166.809C171.508 166.512 171.39 166.21 171.39 165.863H170.39ZM171.099 167.516L170.44 168.269C171.025 168.78 171.719 169.221 172.509 169.599L172.941 168.697L173.372 167.795C172.714 167.48 172.18 167.134 171.757 166.764L171.099 167.516ZM172.941 168.697L172.542 169.614C173.298 169.943 174.395 170.362 175.818 170.868L176.153 169.925L176.488 168.983C175.077 168.481 174.032 168.081 173.34 167.78L172.941 168.697ZM176.153 169.925L175.828 170.871C177.908 171.585 179.586 172.289 180.877 172.98L181.349 172.098L181.82 171.216C180.403 170.458 178.617 169.714 176.477 168.98L176.153 169.925ZM181.349 172.098L180.901 172.993C182.143 173.613 183.206 174.503 184.093 175.677L184.891 175.074L185.689 174.471C184.624 173.063 183.325 171.968 181.796 171.204L181.349 172.098ZM184.891 175.074L184.11 175.699C184.948 176.746 185.403 178.117 185.403 179.892H186.403H187.403C187.403 177.762 186.85 175.921 185.672 174.449L184.891 175.074ZM186.403 179.892H185.403C185.403 181.697 184.947 183.287 184.049 184.69L184.891 185.229L185.733 185.768C186.85 184.023 187.403 182.054 187.403 179.892H186.403ZM184.891 185.229L184.041 184.702C183.178 186.095 181.899 187.219 180.158 188.06L180.593 188.961L181.028 189.861C183.065 188.877 184.652 187.513 185.741 185.756L184.891 185.229ZM180.593 188.961L180.152 188.063C178.459 188.895 176.412 189.331 173.98 189.331V190.331V191.331C176.649 191.331 179.011 190.853 181.034 189.858L180.593 188.961ZM211.773 184.568L212.723 184.254L212.496 183.568H211.773V184.568ZM199.964 184.568V183.568H199.242L199.015 184.254L199.964 184.568ZM198.17 190V191H198.892L199.119 190.314L198.17 190ZM188.439 190L187.5 189.658L187.01 191H188.439V190ZM200.579 156.7V155.7H199.879L199.639 156.357L200.579 156.7ZM211.253 156.7L212.193 156.358L211.954 155.7H211.253V156.7ZM223.346 190V191H224.773L224.285 189.659L223.346 190ZM213.568 190L212.618 190.314L212.845 191H213.568V190ZM209.459 177.483V178.483H210.846L210.407 177.167L209.459 177.483ZM205.869 166.713L206.817 166.397L205.862 163.532L204.919 166.401L205.869 166.713ZM202.326 177.483L201.376 177.17L200.945 178.483H202.326V177.483ZM211.773 184.568V183.568H199.964V184.568V185.568H211.773V184.568ZM199.964 184.568L199.015 184.254L197.22 189.686L198.17 190L199.119 190.314L200.914 184.882L199.964 184.568ZM198.17 190V189H188.439V190V191H198.17V190ZM188.439 190L189.379 190.342L201.518 157.042L200.579 156.7L199.639 156.357L187.5 189.658L188.439 190ZM200.579 156.7V157.7H211.253V156.7V155.7H200.579V156.7ZM211.253 156.7L210.314 157.041L222.406 190.341L223.346 190L224.285 189.659L212.193 156.358L211.253 156.7ZM223.346 190V189H213.568V190V191H223.346V190ZM213.568 190L214.517 189.686L212.723 184.254L211.773 184.568L210.824 184.882L212.618 190.314L213.568 190ZM209.459 177.483L210.407 177.167L206.817 166.397L205.869 166.713L204.92 167.03L208.51 177.799L209.459 177.483ZM205.869 166.713L204.919 166.401L201.376 177.17L202.326 177.483L203.276 177.795L206.819 167.026L205.869 166.713ZM202.326 177.483V178.483H209.459V177.483V176.483H202.326V177.483ZM235.621 182.915H234.621V183.915H235.621V182.915ZM245.965 182.915H246.965V181.915H245.965V182.915ZM245.965 190V191H246.965V190H245.965ZM226.363 190H225.363V191H226.363V190ZM226.363 156.7V155.7H225.363V156.7H226.363ZM235.621 156.7H236.621V155.7H235.621V156.7ZM235.621 182.915V183.915H245.965V182.915V181.915H235.621V182.915ZM245.965 182.915H244.965V190H245.965H246.965V182.915H245.965ZM245.965 190V189H226.363V190V191H245.965V190ZM226.363 190H227.363V156.7H226.363H225.363V190H226.363ZM226.363 156.7V157.7H235.621V156.7V155.7H226.363V156.7ZM235.621 156.7H234.621V182.915H235.621H236.621V156.7H235.621ZM258.823 164.116V163.116H257.823V164.116H258.823ZM258.823 169.547H257.823V170.547H258.823V169.547ZM269.451 169.547H270.451V168.547H269.451V169.547ZM269.451 176.585V177.585H270.451V176.585H269.451ZM258.823 176.585V175.585H257.823V176.585H258.823ZM258.823 182.584H257.823V183.584H258.823V182.584ZM270.868 182.584H271.868V181.584H270.868V182.584ZM270.868 190V191H271.868V190H270.868ZM249.565 190H248.565V191H249.565V190ZM249.565 156.7V155.7H248.565V156.7H249.565ZM270.868 156.7H271.868V155.7H270.868V156.7ZM270.868 164.116V165.116H271.868V164.116H270.868ZM258.823 164.116H257.823V169.547H258.823H259.823V164.116H258.823ZM258.823 169.547V170.547H269.451V169.547V168.547H258.823V169.547ZM269.451 169.547H268.451V176.585H269.451H270.451V169.547H269.451ZM269.451 176.585V175.585H258.823V176.585V177.585H269.451V176.585ZM258.823 176.585H257.823V182.584H258.823H259.823V176.585H258.823ZM258.823 182.584V183.584H270.868V182.584V181.584H258.823V182.584ZM270.868 182.584H269.868V190H270.868H271.868V182.584H270.868ZM270.868 190V189H249.565V190V191H270.868V190ZM249.565 190H250.565V156.7H249.565H248.565V190H249.565ZM249.565 156.7V157.7H270.868V156.7V155.7H249.565V156.7ZM270.868 156.7H269.868V164.116H270.868H271.868V156.7H270.868ZM270.868 164.116V163.116H258.823V164.116V165.116H270.868V164.116Z" fill="#E83F25" mask="url(#path-6-outside-3_98_136)"/>
</svg>
