<svg width="30" height="31" viewBox="0 0 30 31" fill="none" xmlns="http://www.w3.org/2000/svg">
<path d="M26.9997 11.3275C27.004 13.2509 26.263 15.1012 24.9322 16.49C21.8809 19.6537 18.9209 22.9525 15.7572 26C15.0309 26.6875 13.8797 26.6625 13.1859 25.9438L4.06719 16.4913C1.31094 13.6338 1.31094 9.02125 4.06719 6.165C4.71861 5.48125 5.50211 4.9369 6.37017 4.56497C7.23824 4.19303 8.1728 4.00125 9.11719 4.00125C10.0616 4.00125 10.9961 4.19303 11.8642 4.56497C12.7323 4.9369 13.5158 5.48125 14.1672 6.165L14.4997 6.5075L14.8309 6.165C15.4832 5.48218 16.2668 4.93837 17.1346 4.5663C18.0025 4.19424 18.9367 4.00161 19.8809 4C21.7809 4 23.5972 4.78 24.9309 6.165C26.2622 7.55355 27.0037 9.40389 26.9997 11.3275Z" stroke="black" stroke-width="2" stroke-linejoin="round"/>
</svg>
