<svg width="20" height="16" viewBox="0 0 20 16" fill="none" xmlns="http://www.w3.org/2000/svg">
<path fill-rule="evenodd" clip-rule="evenodd" d="M3.55693 0.246521C3.38281 0.0842736 3.15251 -0.00405542 2.91455 0.000143102C2.67659 0.00434163 2.44955 0.10074 2.28126 0.269029C2.11297 0.437318 2.01657 0.664359 2.01237 0.902319C2.00817 1.14028 2.0965 1.37058 2.25875 1.5447L3.27525 2.5612C2.06055 3.55537 1.09581 4.82044 0.458448 6.25488L0.140026 6.97133C0.0477008 7.17937 0 7.40445 0 7.63205C0 7.85966 0.0477008 8.08474 0.140026 8.29278L0.458448 9.00922C1.02296 10.2783 1.84429 11.4166 2.87064 12.3525C3.89699 13.2883 5.10611 14.0014 6.42175 14.4467C7.73739 14.892 9.13102 15.0598 10.5148 14.9397C11.8985 14.8196 13.2424 14.4141 14.4616 13.7488L15.7304 15.0164C15.8145 15.1066 15.9159 15.179 16.0286 15.2292C16.1412 15.2794 16.2629 15.3064 16.3862 15.3086C16.5095 15.3107 16.632 15.2881 16.7464 15.2419C16.8608 15.1957 16.9647 15.1269 17.0519 15.0397C17.1391 14.9525 17.2079 14.8486 17.2541 14.7342C17.3003 14.6198 17.323 14.4973 17.3208 14.374C17.3186 14.2506 17.2916 14.129 17.2414 14.0163C17.1912 13.9037 17.1188 13.8023 17.0286 13.7182L3.55693 0.246521ZM13.0949 12.3808L11.5101 10.7973C10.8083 11.212 9.98853 11.3816 9.1798 11.2793C8.37108 11.177 7.61933 10.8086 7.04292 10.2322C6.46651 9.65578 6.09816 8.90404 5.99585 8.09531C5.89355 7.28658 6.06311 6.46679 6.47783 5.765L4.58078 3.86795C3.52142 4.6965 2.68197 5.77274 2.13628 7.00195L1.85583 7.63144L2.13751 8.26216C2.58024 9.25735 3.2164 10.1546 4.00899 10.9017C4.80159 11.6489 5.73481 12.231 6.75439 12.6142C7.77397 12.9975 8.85957 13.1742 9.94806 13.1341C11.0366 13.094 12.1062 12.838 13.0949 12.3808ZM7.86786 7.15503C7.7845 7.46681 7.78463 7.79504 7.86824 8.10675C7.95185 8.41846 8.116 8.70269 8.34421 8.9309C8.57242 9.15911 8.85665 9.32326 9.16836 9.40687C9.48007 9.49048 9.8083 9.49061 10.1201 9.40725L7.86786 7.15503ZM9.89841 3.96592L13.308 7.37548C13.2463 6.49155 12.8673 5.65968 12.2407 5.03314C11.6142 4.40659 10.7823 4.02757 9.89841 3.96592ZM17.1486 8.26216C16.857 8.91933 16.4802 9.53532 16.028 10.0943L17.3323 11.3998C17.9411 10.6773 18.445 9.87253 18.8289 9.00922L19.1473 8.29278C19.2398 8.08457 19.2876 7.85927 19.2876 7.63144C19.2876 7.40361 19.2398 7.17831 19.1473 6.9701L18.8289 6.25488C17.8286 4.00652 16.0386 2.20304 13.7978 1.186C11.557 0.168963 9.02096 0.00899776 6.67011 0.7364L8.18628 2.25502C9.99638 1.92911 11.8635 2.21983 13.4888 3.08067C15.1141 3.9415 16.4036 5.32268 17.1511 7.00317L17.4303 7.63267L17.1486 8.26216Z" fill="black"/>
</svg>
