<svg width="49" height="49" viewBox="0 0 49 49" fill="none" xmlns="http://www.w3.org/2000/svg">
<path d="M4.08325 34.5042C4.08325 31.8296 4.08325 30.4944 4.68554 29.5123C5.02215 28.9632 5.48389 28.5014 6.03304 28.1648C7.01304 27.5625 8.35238 27.5625 11.0249 27.5625H13.2708C17.1213 27.5625 19.0446 27.5625 20.241 28.759C21.4374 29.9554 21.4374 31.8786 21.4374 35.7292V37.975C21.4374 40.6496 21.4374 41.9849 20.8351 42.9669C20.4985 43.5161 20.0368 43.9778 19.4876 44.3144C18.5076 44.9167 17.1683 44.9167 14.4958 44.9167C10.4859 44.9167 8.481 44.9167 7.00896 44.0143C6.18522 43.5094 5.49261 42.8168 4.98771 41.993C4.08325 40.5169 4.08325 38.514 4.08325 34.5042ZM27.5624 11.025C27.5624 8.35046 27.5624 7.01521 28.1647 6.03317C28.5013 5.48401 28.9631 5.02227 29.5122 4.68567C30.4922 4.08337 31.8315 4.08337 34.5041 4.08337C38.5139 4.08337 40.5188 4.08337 41.9929 4.98579C42.8167 5.49069 43.5093 6.1833 44.0142 7.00704C44.9166 8.48317 44.9166 10.4881 44.9166 14.4959C44.9166 17.1705 44.9166 18.5057 44.3143 19.4877C43.9777 20.0369 43.5159 20.4986 42.9668 20.8352C41.9868 21.4375 40.6475 21.4375 37.9749 21.4375H35.7291C31.8785 21.4375 29.9553 21.4375 28.7588 20.2411C27.5624 19.0447 27.5624 17.1215 27.5624 13.2709V11.025Z" stroke="white" stroke-width="3.0625"/>
<path d="M33.6875 12.7605C33.6875 11.709 33.6875 11.1822 33.9529 10.8107C34.0454 10.6796 34.1593 10.565 34.2898 10.4717C34.6614 10.2084 35.1881 10.2084 36.2396 10.2084C37.291 10.2084 37.8178 10.2084 38.1894 10.4738C38.3205 10.5663 38.435 10.6801 38.5283 10.8107C38.7917 11.1822 38.7917 11.709 38.7917 12.7605C38.7917 13.8119 38.7917 14.3387 38.5263 14.7102C38.4338 14.8413 38.3199 14.9559 38.1894 15.0492C37.8178 15.3125 37.291 15.3125 36.2396 15.3125C35.1881 15.3125 34.6614 15.3125 34.2898 15.0471C34.1587 14.9546 34.0441 14.8408 33.9509 14.7102C33.6875 14.3387 33.6875 13.8119 33.6875 12.7605ZM26.0313 44.9167C26.0313 45.3228 26.1926 45.7123 26.4797 45.9995C26.7669 46.2866 27.1564 46.448 27.5625 46.448C27.9686 46.448 28.3581 46.2866 28.6453 45.9995C28.9324 45.7123 29.0938 45.3228 29.0938 44.9167H26.0313ZM38.7917 26.0313H34.7083V29.0938H38.7917V26.0313ZM26.0313 38.7917V44.9167H29.0938V38.7917H26.0313ZM34.7083 26.0313C33.3057 26.0313 32.1399 26.0313 31.1987 26.1252C30.231 26.2232 29.3347 26.4376 28.5262 26.9786L30.2289 29.5246C30.4494 29.3755 30.7843 29.2449 31.509 29.1714C32.2583 29.0958 33.2445 29.0938 34.7083 29.0938V26.0313ZM29.0938 34.7084C29.0938 33.2425 29.0938 32.2584 29.1713 31.5091C29.2448 30.7843 29.3755 30.4495 29.5245 30.229L26.9786 28.5262C26.4396 29.3347 26.2232 30.231 26.1252 31.1987C26.0292 32.14 26.0313 33.3057 26.0313 34.7084H29.0938ZM28.5262 26.9786C27.9137 27.387 27.3869 27.9137 26.9786 28.5262L29.5245 30.229C29.7128 29.9518 29.9518 29.7128 30.2289 29.5246L28.5262 26.9786ZM46.4479 27.5625C46.4479 27.1564 46.2866 26.7669 45.9994 26.4798C45.7123 26.1926 45.3228 26.0313 44.9167 26.0313C44.5106 26.0313 44.1211 26.1926 43.8339 26.4798C43.5467 26.7669 43.3854 27.1564 43.3854 27.5625H46.4479ZM34.7083 46.448H38.7917V43.3855H34.7083V46.448ZM46.4479 34.7084V27.5625H43.3854V34.7084H46.4479ZM38.7917 46.448C39.7227 46.448 40.4965 46.448 41.1294 46.4071C41.7766 46.3622 42.3891 46.2683 42.9812 46.0212L41.8093 43.1915C41.652 43.2568 41.4132 43.316 40.9211 43.3507C40.4168 43.3855 39.7635 43.3855 38.7917 43.3855V46.448ZM43.3854 38.7917C43.3854 39.7635 43.3854 40.4169 43.3507 40.9212C43.316 41.4132 43.2568 41.6521 43.1915 41.8093L46.0212 42.9812C46.2662 42.3891 46.3622 41.7766 46.405 41.1294C46.4479 40.4965 46.4479 39.7207 46.4479 38.7917H43.3854ZM42.9812 46.0212C43.6626 45.7393 44.2818 45.3239 44.8034 44.8026C45.325 44.2813 45.7388 43.6624 46.0212 42.9812L43.1915 41.8093C43.0632 42.1192 42.8751 42.4008 42.6379 42.638C42.4008 42.8751 42.1192 43.0632 41.8093 43.1915L42.9812 46.0212Z" fill="white"/>
<path d="M4.08325 14.4959C4.08325 10.486 4.08325 8.48112 4.98567 7.00908C5.49057 6.18535 6.18318 5.49274 7.00692 4.98783C8.48304 4.08337 10.488 4.08337 14.4958 4.08337C17.1703 4.08337 18.5056 4.08337 19.4876 4.68567C20.0368 5.02227 20.4985 5.48401 20.8351 6.03317C21.4374 7.01317 21.4374 8.3525 21.4374 11.025V13.2709C21.4374 17.1215 21.4374 19.0447 20.241 20.2411C19.0446 21.4375 17.1213 21.4375 13.2708 21.4375H11.0249C8.35034 21.4375 7.01508 21.4375 6.03304 20.8352C5.48389 20.4986 5.02215 20.0369 4.68554 19.4877C4.08325 18.5077 4.08325 17.1684 4.08325 14.4959Z" stroke="white" stroke-width="3.0625"/>
<path d="M10.2083 12.7605C10.2083 11.709 10.2083 11.1822 10.4737 10.8107C10.5661 10.6796 10.68 10.565 10.8105 10.4717C11.1821 10.2084 11.7089 10.2084 12.7603 10.2084C13.8118 10.2084 14.3385 10.2084 14.7101 10.4738C14.8412 10.5663 14.9558 10.6801 15.049 10.8107C15.3124 11.1822 15.3124 11.709 15.3124 12.7605C15.3124 13.8119 15.3124 14.3387 15.047 14.7102C14.9545 14.8413 14.8406 14.9559 14.7101 15.0492C14.3385 15.3125 13.8118 15.3125 12.7603 15.3125C11.7089 15.3125 11.1821 15.3125 10.8105 15.0471C10.6795 14.9546 10.5649 14.8408 10.4716 14.7102C10.2083 14.3387 10.2083 13.8119 10.2083 12.7605ZM10.2083 36.2396C10.2083 35.1882 10.2083 34.6614 10.4737 34.2898C10.5661 34.1588 10.68 34.0442 10.8105 33.9509C11.1821 33.6875 11.7089 33.6875 12.7603 33.6875C13.8118 33.6875 14.3385 33.6875 14.7101 33.953C14.8412 34.0454 14.9558 34.1593 15.049 34.2898C15.3124 34.6614 15.3124 35.1882 15.3124 36.2396C15.3124 37.2911 15.3124 37.8178 15.047 38.1894C14.9545 38.3205 14.8406 38.4351 14.7101 38.5283C14.3385 38.7917 13.8118 38.7917 12.7603 38.7917C11.7089 38.7917 11.1821 38.7917 10.8105 38.5263C10.6795 38.4338 10.5649 38.3199 10.4716 38.1894C10.2083 37.8178 10.2083 37.2911 10.2083 36.2396ZM32.6666 36.2396C32.6666 34.8064 32.6666 34.0897 33.0116 33.5732C33.1602 33.3511 33.351 33.1604 33.5731 33.0117C34.0896 32.6667 34.8062 32.6667 36.2395 32.6667C37.6728 32.6667 38.3894 32.6667 38.9059 33.0117C39.128 33.1604 39.3188 33.3511 39.4674 33.5732C39.8124 34.0897 39.8124 34.8064 39.8124 36.2396C39.8124 37.6729 39.8124 38.3895 39.4674 38.906C39.3188 39.1281 39.128 39.3189 38.9059 39.4675C38.3894 39.8125 37.6728 39.8125 36.2395 39.8125C34.8062 39.8125 34.0896 39.8125 33.5731 39.4675C33.351 39.3189 33.1602 39.1281 33.0116 38.906C32.6666 38.3895 32.6666 37.6729 32.6666 36.2396Z" fill="white"/>
</svg>
