<svg width="36" height="42" viewBox="0 0 36 42" fill="none" xmlns="http://www.w3.org/2000/svg">
<path d="M2.53045 5.10186C0 7.63246 0 11.7058 0 19.8514V21.2914C0 29.4371 0 33.5104 2.53045 36.0409C5.06105 38.5714 9.13436 38.5714 17.28 38.5714H18.72C26.8657 38.5714 30.939 38.5714 33.4695 36.0409C36 33.5104 36 29.4371 36 21.2914V19.8514C36 11.7057 36 7.63238 33.4695 5.10186C30.939 2.57141 26.8657 2.57141 18.72 2.57141H17.28C9.13428 2.57141 5.06097 2.57141 2.53045 5.10186ZM6.075 13.5215H10.185C10.32 20.3915 13.35 23.3015 15.75 23.9015V13.5214H19.62V19.4464C21.99 19.1914 24.48 16.4914 25.32 13.5214H29.19C28.8733 15.0617 28.2423 16.5201 27.3364 17.8055C26.4305 19.0908 25.2691 20.1754 23.925 20.9914C25.4258 21.7365 26.7514 22.7917 27.8142 24.0872C28.8769 25.3826 29.6526 26.8889 30.09 28.5064H25.83C25.4375 27.1014 24.6387 25.8436 23.5339 24.8909C22.4291 23.9382 21.0675 23.3331 19.62 23.1514V28.5064H19.155C10.95 28.5064 6.27003 22.8814 6.075 13.5214" fill="#15649C"/>
</svg>
